<svg xmlns="http://www.w3.org/2000/svg" width="1700" height="600">
    <defs>
        <style type="text/css">
            @namespace "http://www.w3.org/2000/svg";
            .line {fill: none;stroke: #0099FF;stroke-width: 1;}
            .bold-line {stroke: #000714;shape-rendering: crispEdges;stroke-width: 2;}
            .thin-line {stroke: #000A1F;shape-rendering: crispEdges}
            .filled {fill: #001133;stroke: none;}
            text.terminal {font-family: Verdana, Sans-serif;font-size: 12px;fill: #000714;font-weight: bold;}
            text.nonterminal {font-family: Verdana, Sans-serif;font-size: 12px;fill: #00091A;font-weight: normal;}
            text.regexp {font-family: Verdana, Sans-serif;font-size: 12px;fill: #000A1F;font-weight: normal;}
            rect, circle, polygon {fill: #001133;stroke: #001133;}
            rect.terminal {fill: #4D88FF;stroke: #001133;stroke-width: 1;}
            rect.nonterminal {fill: #9EBFFF;stroke: #001133;stroke-width: 1;}
            rect.text {fill: none;stroke: none;}
            polygon.regexp {fill: #C7DAFF;stroke: #001133;stroke-width: 1;}
        </style>
    </defs>
    <polygon points="9 111 1 107 1 115"/>
    <polygon points="17 111 9 107 9 115"/>
    <rect x="71" y="97" width="70" height="32" rx="10"/>
    <rect x="69" y="95" width="70" height="32" class="terminal" rx="10"/>
    <text class="terminal" x="79" y="115">SELECT</text>
    <rect x="161" y="97" width="60" height="32" rx="10"/>
    <rect x="159" y="95" width="60" height="32" class="terminal" rx="10"/>
    <text class="terminal" x="169" y="115">FROM</text>
    <rect x="71" y="141" width="196" height="32" rx="10"/>
    <rect x="69" y="139" width="196" height="32" class="terminal" rx="10"/>
    <text class="terminal" x="79" y="159">SELECT_ASTERISK_FROM</text>
    <rect x="367" y="97" width="54" height="32" rx="10"/>
    <rect x="365" y="95" width="54" height="32" class="terminal" rx="10"/>
    <text class="terminal" x="375" y="115">JOIN</text>
    <rect x="367" y="141" width="90" height="32" rx="10"/>
    <rect x="365" y="139" width="90" height="32" class="terminal" rx="10"/>
    <text class="terminal" x="375" y="159">LEFT JOIN</text>
    <rect x="367" y="185" width="102" height="32" rx="10"/>
    <rect x="365" y="183" width="102" height="32" class="terminal" rx="10"/>
    <text class="terminal" x="375" y="203">RIGHT JOIN</text>
    <rect x="367" y="229" width="102" height="32" rx="10"/>
    <rect x="365" y="227" width="102" height="32" class="terminal" rx="10"/>
    <text class="terminal" x="375" y="247">INNER JOIN</text>
    <rect x="509" y="97" width="40" height="32" rx="10"/>
    <rect x="507" y="95" width="40" height="32" class="terminal" rx="10"/>
    <text class="terminal" x="517" y="115">ON</text>
    <rect x="589" y="63" width="48" height="32" rx="10"/>
    <rect x="587" y="61" width="48" height="32" class="terminal" rx="10"/>
    <text class="terminal" x="597" y="81">AND</text>
    <rect x="589" y="19" width="40" height="32" rx="10"/>
    <rect x="587" y="17" width="40" height="32" class="terminal" rx="10"/>
    <text class="terminal" x="597" y="37">OR</text>
    <rect x="737" y="97" width="70" height="32" rx="10"/>
    <rect x="735" y="95" width="70" height="32" class="terminal" rx="10"/>
    <text class="terminal" x="745" y="115">WHERE</text>
    <rect x="847" y="63" width="48" height="32" rx="10"/>
    <rect x="845" y="61" width="48" height="32" class="terminal" rx="10"/>
    <text class="terminal" x="855" y="81">AND</text>
    <rect x="847" y="19" width="40" height="32" rx="10"/>
    <rect x="845" y="17" width="40" height="32" class="terminal" rx="10"/>
    <text class="terminal" x="855" y="37">OR</text>
    <rect x="975" y="97" width="86" height="32" rx="10"/>
    <rect x="973" y="95" width="86" height="32" class="terminal" rx="10"/>
    <text class="terminal" x="983" y="115">GROUPBY</text>
    <rect x="1101" y="97" width="74" height="32" rx="10"/>
    <rect x="1099" y="95" width="74" height="32" class="terminal" rx="10"/>
    <text class="terminal" x="1109" y="115">HAVING</text>
    <rect x="1215" y="63" width="48" height="32" rx="10"/>
    <rect x="1213" y="61" width="48" height="32" class="terminal" rx="10"/>
    <text class="terminal" x="1223" y="81">AND</text>
    <rect x="1215" y="19" width="40" height="32" rx="10"/>
    <rect x="1213" y="17" width="40" height="32" class="terminal" rx="10"/>
    <text class="terminal" x="1223" y="37">OR</text>
    <rect x="1363" y="129" width="90" height="32" rx="10"/>
    <rect x="1361" y="127" width="90" height="32" class="terminal" rx="10"/>
    <text class="terminal" x="1371" y="147">ORDER BY</text>
    <rect x="1513" y="129" width="60" height="32" rx="10"/>
    <rect x="1511" y="127" width="60" height="32" class="terminal" rx="10"/>
    <text class="terminal" x="1521" y="147">LIMIT</text>
    <rect x="1633" y="129" width="72" height="32" rx="10"/>
    <rect x="1631" y="127" width="72" height="32" class="terminal" rx="10"/>
    <text class="terminal" x="1641" y="147">OFFSET</text>
    <rect x="71" y="373" width="70" height="32" rx="10"/>
    <rect x="69" y="371" width="70" height="32" class="terminal" rx="10"/>
    <text class="terminal" x="79" y="391">DELETE</text>
    <rect x="161" y="373" width="60" height="32" rx="10"/>
    <rect x="159" y="371" width="60" height="32" class="terminal" rx="10"/>
    <text class="terminal" x="169" y="391">FROM</text>
    <rect x="71" y="417" width="120" height="32" rx="10"/>
    <rect x="69" y="415" width="120" height="32" class="terminal" rx="10"/>
    <text class="terminal" x="79" y="435">DELETE_FROM</text>
    <rect x="71" y="461" width="74" height="32" rx="10"/>
    <rect x="69" y="459" width="74" height="32" class="terminal" rx="10"/>
    <text class="terminal" x="79" y="479">UPDATE</text>
    <rect x="165" y="461" width="44" height="32" rx="10"/>
    <rect x="163" y="459" width="44" height="32" class="terminal" rx="10"/>
    <text class="terminal" x="173" y="479">SET</text>
    <rect x="281" y="373" width="70" height="32" rx="10"/>
    <rect x="279" y="371" width="70" height="32" class="terminal" rx="10"/>
    <text class="terminal" x="289" y="391">WHERE</text>
    <rect x="391" y="339" width="48" height="32" rx="10"/>
    <rect x="389" y="337" width="48" height="32" class="terminal" rx="10"/>
    <text class="terminal" x="399" y="357">AND</text>
    <rect x="391" y="295" width="40" height="32" rx="10"/>
    <rect x="389" y="293" width="40" height="32" class="terminal" rx="10"/>
    <text class="terminal" x="399" y="313">OR</text>
    <rect x="71" y="505" width="70" height="32" rx="10"/>
    <rect x="69" y="503" width="70" height="32" class="terminal" rx="10"/>
    <text class="terminal" x="79" y="523">INSERT</text>
    <rect x="161" y="505" width="56" height="32" rx="10"/>
    <rect x="159" y="503" width="56" height="32" class="terminal" rx="10"/>
    <text class="terminal" x="169" y="523">INTO</text>
    <rect x="71" y="549" width="116" height="32" rx="10"/>
    <rect x="69" y="547" width="116" height="32" class="terminal" rx="10"/>
    <text class="terminal" x="79" y="567">INSERT_INTO</text>
    <rect x="277" y="505" width="72" height="32" rx="10"/>
    <rect x="275" y="503" width="72" height="32" class="terminal" rx="10"/>
    <text class="terminal" x="285" y="523">VALUES</text>
    <a xmlns:xlink="http://www.w3.org/1999/xlink" xlink:href="#SELECT" xlink:title="SELECT">
        <rect x="277" y="549" width="66" height="32"/>
        <rect x="275" y="547" width="66" height="32" class="nonterminal"/>
        <text class="nonterminal" x="285" y="567">SELECT</text>
    </a>
    <path class="line" d="m17 111 h2 m40 0 h10 m70 0 h10 m0 0 h10 m60 0 h10 m0 0 h46 m-236 0 h20 m216 0 h20 m-256 0 q10 0 10 10 m236 0 q0 -10 10 -10 m-246 10 v24 m236 0 v-24 m-236 24 q0 10 10 10 m216 0 q10 0 10 -10 m-226 10 h10 m196 0 h10 m80 -44 h10 m54 0 h10 m0 0 h48 m-142 0 h20 m122 0 h20 m-162 0 q10 0 10 10 m142 0 q0 -10 10 -10 m-152 10 v24 m142 0 v-24 m-142 24 q0 10 10 10 m122 0 q10 0 10 -10 m-132 10 h10 m90 0 h10 m0 0 h12 m-132 -10 v20 m142 0 v-20 m-142 20 v24 m142 0 v-24 m-142 24 q0 10 10 10 m122 0 q10 0 10 -10 m-132 10 h10 m102 0 h10 m-132 -10 v20 m142 0 v-20 m-142 20 v24 m142 0 v-24 m-142 24 q0 10 10 10 m122 0 q10 0 10 -10 m-132 10 h10 m102 0 h10 m20 -132 h10 m40 0 h10 m20 0 h10 m0 0 h58 m-88 0 l20 0 m-1 0 q-9 0 -9 -10 l0 -14 q0 -10 10 -10 m68 34 l20 0 m-20 0 q10 0 10 -10 l0 -14 q0 -10 -10 -10 m-68 0 h10 m48 0 h10 m-78 10 l0 -44 q0 -10 10 -10 m78 54 l0 -44 q0 -10 -10 -10 m-68 0 h10 m40 0 h10 m0 0 h8 m-330 78 l20 0 m-1 0 q-9 0 -9 -10 l0 -90 q0 -10 10 -10 m330 110 l20 0 m-20 0 q10 0 10 -10 l0 -90 q0 -10 -10 -10 m-330 0 h10 m0 0 h320 m-370 110 h20 m370 0 h20 m-410 0 q10 0 10 10 m390 0 q0 -10 10 -10 m-400 10 v146 m390 0 v-146 m-390 146 q0 10 10 10 m370 0 q10 0 10 -10 m-380 10 h10 m0 0 h360 m40 -166 h10 m70 0 h10 m20 0 h10 m0 0 h58 m-88 0 l20 0 m-1 0 q-9 0 -9 -10 l0 -14 q0 -10 10 -10 m68 34 l20 0 m-20 0 q10 0 10 -10 l0 -14 q0 -10 -10 -10 m-68 0 h10 m48 0 h10 m-78 10 l0 -44 q0 -10 10 -10 m78 54 l0 -44 q0 -10 -10 -10 m-68 0 h10 m40 0 h10 m0 0 h8 m-198 78 h20 m198 0 h20 m-238 0 q10 0 10 10 m218 0 q0 -10 10 -10 m-228 10 v14 m218 0 v-14 m-218 14 q0 10 10 10 m198 0 q10 0 10 -10 m-208 10 h10 m0 0 h188 m40 -34 h10 m86 0 h10 m20 0 h10 m74 0 h10 m20 0 h10 m0 0 h58 m-88 0 l20 0 m-1 0 q-9 0 -9 -10 l0 -14 q0 -10 10 -10 m68 34 l20 0 m-20 0 q10 0 10 -10 l0 -14 q0 -10 -10 -10 m-68 0 h10 m48 0 h10 m-78 10 l0 -44 q0 -10 10 -10 m78 54 l0 -44 q0 -10 -10 -10 m-68 0 h10 m40 0 h10 m0 0 h8 m-202 78 h20 m202 0 h20 m-242 0 q10 0 10 10 m222 0 q0 -10 10 -10 m-232 10 v14 m222 0 v-14 m-222 14 q0 10 10 10 m202 0 q10 0 10 -10 m-212 10 h10 m0 0 h192 m-348 -34 h20 m348 0 h20 m-388 0 q10 0 10 10 m368 0 q0 -10 10 -10 m-378 10 v30 m368 0 v-30 m-368 30 q0 10 10 10 m348 0 q10 0 10 -10 m-358 10 h10 m0 0 h338 m40 -50 h10 m0 0 h100 m-130 0 h20 m110 0 h20 m-150 0 q10 0 10 10 m130 0 q0 -10 10 -10 m-140 10 v12 m130 0 v-12 m-130 12 q0 10 10 10 m110 0 q10 0 10 -10 m-120 10 h10 m90 0 h10 m40 -32 h10 m0 0 h70 m-100 0 h20 m80 0 h20 m-120 0 q10 0 10 10 m100 0 q0 -10 10 -10 m-110 10 v12 m100 0 v-12 m-100 12 q0 10 10 10 m80 0 q10 0 10 -10 m-90 10 h10 m60 0 h10 m40 -32 h10 m0 0 h82 m-112 0 h20 m92 0 h20 m-132 0 q10 0 10 10 m112 0 q0 -10 10 -10 m-122 10 v12 m112 0 v-12 m-112 12 q0 10 10 10 m92 0 q10 0 10 -10 m-102 10 h10 m72 0 h10 m-1694 -32 h20 m1694 0 h20 m-1734 0 q10 0 10 10 m1714 0 q0 -10 10 -10 m-1724 10 v256 m1714 0 v-256 m-1714 256 q0 10 10 10 m1694 0 q10 0 10 -10 m-1684 10 h10 m70 0 h10 m0 0 h10 m60 0 h10 m-190 0 h20 m170 0 h20 m-210 0 q10 0 10 10 m190 0 q0 -10 10 -10 m-200 10 v24 m190 0 v-24 m-190 24 q0 10 10 10 m170 0 q10 0 10 -10 m-180 10 h10 m120 0 h10 m0 0 h30 m-180 -10 v20 m190 0 v-20 m-190 20 v24 m190 0 v-24 m-190 24 q0 10 10 10 m170 0 q10 0 10 -10 m-180 10 h10 m74 0 h10 m0 0 h10 m44 0 h10 m0 0 h12 m40 -88 h10 m70 0 h10 m20 0 h10 m0 0 h58 m-88 0 l20 0 m-1 0 q-9 0 -9 -10 l0 -14 q0 -10 10 -10 m68 34 l20 0 m-20 0 q10 0 10 -10 l0 -14 q0 -10 -10 -10 m-68 0 h10 m48 0 h10 m-78 10 l0 -44 q0 -10 10 -10 m78 54 l0 -44 q0 -10 -10 -10 m-68 0 h10 m40 0 h10 m0 0 h8 m-198 78 h20 m198 0 h20 m-238 0 q10 0 10 10 m218 0 q0 -10 10 -10 m-228 10 v14 m218 0 v-14 m-218 14 q0 10 10 10 m198 0 q10 0 10 -10 m-208 10 h10 m0 0 h188 m20 -34 h1246 m-1704 -10 v20 m1714 0 v-20 m-1714 20 v112 m1714 0 v-112 m-1714 112 q0 10 10 10 m1694 0 q10 0 10 -10 m-1684 10 h10 m70 0 h10 m0 0 h10 m56 0 h10 m-186 0 h20 m166 0 h20 m-206 0 q10 0 10 10 m186 0 q0 -10 10 -10 m-196 10 v24 m186 0 v-24 m-186 24 q0 10 10 10 m166 0 q10 0 10 -10 m-176 10 h10 m116 0 h10 m0 0 h30 m40 -44 h10 m72 0 h10 m-112 0 h20 m92 0 h20 m-132 0 q10 0 10 10 m112 0 q0 -10 10 -10 m-122 10 v24 m112 0 v-24 m-112 24 q0 10 10 10 m92 0 q10 0 10 -10 m-102 10 h10 m66 0 h10 m0 0 h6 m20 -44 h1356 m23 -408 h-3"/>
    <polygon points="1763 111 1771 107 1771 115"/>
    <polygon points="1763 111 1755 107 1755 115"/>
</svg>
