<svg xmlns="http://www.w3.org/2000/svg" width="1111" height="457">
    <defs>
        <style type="text/css">
            @namespace "http://www.w3.org/2000/svg";
            .line                 {fill: none; stroke: #001133; stroke-width: 1;}
            .bold-line            {stroke: #000714; shape-rendering: crispEdges; stroke-width: 2;}
            .thin-line            {stroke: #000A1F; shape-rendering: crispEdges}
            .filled               {fill: #001133; stroke: none;}
            text.terminal         {font-family: Verdana, Sans-serif;
            font-size: 12px;
            fill: #000714;
            font-weight: bold;
            }
            text.nonterminal      {font-family: Verdana, Sans-serif;
            font-size: 12px;
            fill: #00091A;
            font-weight: normal;
            }
            text.regexp           {font-family: Verdana, Sans-serif;
            font-size: 12px;
            fill: #000A1F;
            font-weight: normal;
            }
            rect, circle, polygon {fill: #001133; stroke: #001133;}
            rect.terminal         {fill: #4D88FF; stroke: #001133; stroke-width: 1;}
            rect.nonterminal      {fill: #9EBFFF; stroke: #001133; stroke-width: 1;}
            rect.text             {fill: none; stroke: none;}
            polygon.regexp        {fill: #C7DAFF; stroke: #001133; stroke-width: 1;}
        </style>
    </defs>
    <polygon points="9 95 1 91 1 99"/>
    <polygon points="17 95 9 91 9 99"/>
    <rect x="71" y="81" width="70" height="32" rx="10"/>
    <rect x="69"
          y="79"
          width="70"
          height="32"
          class="terminal"
          rx="10"/>
    <text class="terminal" x="79" y="99">SELECT</text>
    <rect x="161" y="81" width="60" height="32" rx="10"/>
    <rect x="159"
          y="79"
          width="60"
          height="32"
          class="terminal"
          rx="10"/>
    <text class="terminal" x="169" y="99">FROM</text>
    <rect x="71" y="125" width="196" height="32" rx="10"/>
    <rect x="69"
          y="123"
          width="196"
          height="32"
          class="terminal"
          rx="10"/>
    <text class="terminal" x="79" y="143">SELECT_ASTERISK_FROM</text>
    <rect x="327" y="81" width="70" height="32" rx="10"/>
    <rect x="325"
          y="79"
          width="70"
          height="32"
          class="terminal"
          rx="10"/>
    <text class="terminal" x="335" y="99">WHERE</text>
    <rect x="437" y="47" width="48" height="32" rx="10"/>
    <rect x="435"
          y="45"
          width="48"
          height="32"
          class="terminal"
          rx="10"/>
    <text class="terminal" x="445" y="65">AND</text>
    <rect x="437" y="3" width="40" height="32" rx="10"/>
    <rect x="435"
          y="1"
          width="40"
          height="32"
          class="terminal"
          rx="10"/>
    <text class="terminal" x="445" y="21">OR</text>
    <rect x="565" y="81" width="86" height="32" rx="10"/>
    <rect x="563"
          y="79"
          width="86"
          height="32"
          class="terminal"
          rx="10"/>
    <text class="terminal" x="573" y="99">GROUPBY</text>
    <rect x="691" y="81" width="74" height="32" rx="10"/>
    <rect x="689"
          y="79"
          width="74"
          height="32"
          class="terminal"
          rx="10"/>
    <text class="terminal" x="699" y="99">HAVING</text>
    <rect x="805" y="47" width="48" height="32" rx="10"/>
    <rect x="803"
          y="45"
          width="48"
          height="32"
          class="terminal"
          rx="10"/>
    <text class="terminal" x="813" y="65">AND</text>
    <rect x="805" y="3" width="40" height="32" rx="10"/>
    <rect x="803"
          y="1"
          width="40"
          height="32"
          class="terminal"
          rx="10"/>
    <text class="terminal" x="813" y="21">OR</text>
    <rect x="953" y="113" width="90" height="32" rx="10"/>
    <rect x="951"
          y="111"
          width="90"
          height="32"
          class="terminal"
          rx="10"/>
    <text class="terminal" x="961" y="131">ORDER BY</text>
    <rect x="71" y="247" width="70" height="32" rx="10"/>
    <rect x="69"
          y="245"
          width="70"
          height="32"
          class="terminal"
          rx="10"/>
    <text class="terminal" x="79" y="265">DELETE</text>
    <rect x="161" y="247" width="60" height="32" rx="10"/>
    <rect x="159"
          y="245"
          width="60"
          height="32"
          class="terminal"
          rx="10"/>
    <text class="terminal" x="169" y="265">FROM</text>
    <rect x="71" y="291" width="120" height="32" rx="10"/>
    <rect x="69"
          y="289"
          width="120"
          height="32"
          class="terminal"
          rx="10"/>
    <text class="terminal" x="79" y="309">DELETE_FROM</text>
    <rect x="71" y="335" width="74" height="32" rx="10"/>
    <rect x="69"
          y="333"
          width="74"
          height="32"
          class="terminal"
          rx="10"/>
    <text class="terminal" x="79" y="353">UPDATE</text>
    <rect x="165" y="335" width="44" height="32" rx="10"/>
    <rect x="163"
          y="333"
          width="44"
          height="32"
          class="terminal"
          rx="10"/>
    <text class="terminal" x="173" y="353">SET</text>
    <rect x="281" y="247" width="70" height="32" rx="10"/>
    <rect x="279"
          y="245"
          width="70"
          height="32"
          class="terminal"
          rx="10"/>
    <text class="terminal" x="289" y="265">WHERE</text>
    <rect x="391" y="213" width="48" height="32" rx="10"/>
    <rect x="389"
          y="211"
          width="48"
          height="32"
          class="terminal"
          rx="10"/>
    <text class="terminal" x="399" y="231">AND</text>
    <rect x="391" y="169" width="40" height="32" rx="10"/>
    <rect x="389"
          y="167"
          width="40"
          height="32"
          class="terminal"
          rx="10"/>
    <text class="terminal" x="399" y="187">OR</text>
    <rect x="71" y="379" width="70" height="32" rx="10"/>
    <rect x="69"
          y="377"
          width="70"
          height="32"
          class="terminal"
          rx="10"/>
    <text class="terminal" x="79" y="397">INSERT</text>
    <rect x="161" y="379" width="56" height="32" rx="10"/>
    <rect x="159"
          y="377"
          width="56"
          height="32"
          class="terminal"
          rx="10"/>
    <text class="terminal" x="169" y="397">INTO</text>
    <rect x="71" y="423" width="116" height="32" rx="10"/>
    <rect x="69"
          y="421"
          width="116"
          height="32"
          class="terminal"
          rx="10"/>
    <text class="terminal" x="79" y="441">INSERT_INTO</text>
    <rect x="277" y="379" width="72" height="32" rx="10"/>
    <rect x="275"
          y="377"
          width="72"
          height="32"
          class="terminal"
          rx="10"/>
    <text class="terminal" x="285" y="397">VALUES</text>
    <a xmlns:xlink="http://www.w3.org/1999/xlink"
       xlink:href="#SELECT"
       xlink:title="SELECT">
        <rect x="277" y="423" width="66" height="32"/>
        <rect x="275" y="421" width="66" height="32" class="nonterminal"/>
        <text class="nonterminal" x="285" y="441">SELECT</text>
    </a>
    <path class="line"
          d="m17 95 h2 m40 0 h10 m70 0 h10 m0 0 h10 m60 0 h10 m0 0 h46 m-236 0 h20 m216 0 h20 m-256 0 q10 0 10 10 m236 0 q0 -10 10 -10 m-246 10 v24 m236 0 v-24 m-236 24 q0 10 10 10 m216 0 q10 0 10 -10 m-226 10 h10 m196 0 h10 m40 -44 h10 m70 0 h10 m20 0 h10 m0 0 h58 m-88 0 l20 0 m-1 0 q-9 0 -9 -10 l0 -14 q0 -10 10 -10 m68 34 l20 0 m-20 0 q10 0 10 -10 l0 -14 q0 -10 -10 -10 m-68 0 h10 m48 0 h10 m-78 10 l0 -44 q0 -10 10 -10 m78 54 l0 -44 q0 -10 -10 -10 m-68 0 h10 m40 0 h10 m0 0 h8 m-198 78 h20 m198 0 h20 m-238 0 q10 0 10 10 m218 0 q0 -10 10 -10 m-228 10 v14 m218 0 v-14 m-218 14 q0 10 10 10 m198 0 q10 0 10 -10 m-208 10 h10 m0 0 h188 m40 -34 h10 m86 0 h10 m20 0 h10 m74 0 h10 m20 0 h10 m0 0 h58 m-88 0 l20 0 m-1 0 q-9 0 -9 -10 l0 -14 q0 -10 10 -10 m68 34 l20 0 m-20 0 q10 0 10 -10 l0 -14 q0 -10 -10 -10 m-68 0 h10 m48 0 h10 m-78 10 l0 -44 q0 -10 10 -10 m78 54 l0 -44 q0 -10 -10 -10 m-68 0 h10 m40 0 h10 m0 0 h8 m-202 78 h20 m202 0 h20 m-242 0 q10 0 10 10 m222 0 q0 -10 10 -10 m-232 10 v14 m222 0 v-14 m-222 14 q0 10 10 10 m202 0 q10 0 10 -10 m-212 10 h10 m0 0 h192 m-348 -34 h20 m348 0 h20 m-388 0 q10 0 10 10 m368 0 q0 -10 10 -10 m-378 10 v30 m368 0 v-30 m-368 30 q0 10 10 10 m348 0 q10 0 10 -10 m-358 10 h10 m0 0 h338 m40 -50 h10 m0 0 h100 m-130 0 h20 m110 0 h20 m-150 0 q10 0 10 10 m130 0 q0 -10 10 -10 m-140 10 v12 m130 0 v-12 m-130 12 q0 10 10 10 m110 0 q10 0 10 -10 m-120 10 h10 m90 0 h10 m-1032 -32 h20 m1032 0 h20 m-1072 0 q10 0 10 10 m1052 0 q0 -10 10 -10 m-1062 10 v146 m1052 0 v-146 m-1052 146 q0 10 10 10 m1032 0 q10 0 10 -10 m-1022 10 h10 m70 0 h10 m0 0 h10 m60 0 h10 m-190 0 h20 m170 0 h20 m-210 0 q10 0 10 10 m190 0 q0 -10 10 -10 m-200 10 v24 m190 0 v-24 m-190 24 q0 10 10 10 m170 0 q10 0 10 -10 m-180 10 h10 m120 0 h10 m0 0 h30 m-180 -10 v20 m190 0 v-20 m-190 20 v24 m190 0 v-24 m-190 24 q0 10 10 10 m170 0 q10 0 10 -10 m-180 10 h10 m74 0 h10 m0 0 h10 m44 0 h10 m0 0 h12 m40 -88 h10 m70 0 h10 m20 0 h10 m0 0 h58 m-88 0 l20 0 m-1 0 q-9 0 -9 -10 l0 -14 q0 -10 10 -10 m68 34 l20 0 m-20 0 q10 0 10 -10 l0 -14 q0 -10 -10 -10 m-68 0 h10 m48 0 h10 m-78 10 l0 -44 q0 -10 10 -10 m78 54 l0 -44 q0 -10 -10 -10 m-68 0 h10 m40 0 h10 m0 0 h8 m-198 78 h20 m198 0 h20 m-238 0 q10 0 10 10 m218 0 q0 -10 10 -10 m-228 10 v14 m218 0 v-14 m-218 14 q0 10 10 10 m198 0 q10 0 10 -10 m-208 10 h10 m0 0 h188 m20 -34 h584 m-1042 -10 v20 m1052 0 v-20 m-1052 20 v112 m1052 0 v-112 m-1052 112 q0 10 10 10 m1032 0 q10 0 10 -10 m-1022 10 h10 m70 0 h10 m0 0 h10 m56 0 h10 m-186 0 h20 m166 0 h20 m-206 0 q10 0 10 10 m186 0 q0 -10 10 -10 m-196 10 v24 m186 0 v-24 m-186 24 q0 10 10 10 m166 0 q10 0 10 -10 m-176 10 h10 m116 0 h10 m0 0 h30 m40 -44 h10 m72 0 h10 m-112 0 h20 m92 0 h20 m-132 0 q10 0 10 10 m112 0 q0 -10 10 -10 m-122 10 v24 m112 0 v-24 m-112 24 q0 10 10 10 m92 0 q10 0 10 -10 m-102 10 h10 m66 0 h10 m0 0 h6 m20 -44 h694 m23 -298 h-3"/>
    <polygon points="1101 95 1109 91 1109 99"/>
    <polygon points="1101 95 1093 91 1093 99"/>
</svg>
