<svg xmlns="http://www.w3.org/2000/svg" width="837" height="247">
    <defs>
        <style type="text/css">
            @namespace "http://www.w3.org/2000/svg";
            .line {fill: none; stroke: #001133; stroke-width: 1;}
            .bold-line {stroke: #000714; shape-rendering: crispEdges; stroke-width: 2;}
            .thin-line {stroke: #000A1F; shape-rendering: crispEdges}
            .filled {fill: #001133; stroke: none;}
            text.terminal {font-family: Verdana, Sans-serif;
            font-size: 12px;
            fill: #000714;
            font-weight: bold;
            }
            text.nonterminal {font-family: Verdana, Sans-serif;
            font-size: 12px;
            fill: #00091A;
            font-weight: normal;
            }
            text.regexp {font-family: Verdana, Sans-serif;
            font-size: 12px;
            fill: #000A1F;
            font-weight: normal;
            }
            rect, circle, polygon {fill: #001133; stroke: #001133;}
            rect.terminal {fill: #4D88FF; stroke: #001133; stroke-width: 1;}
            rect.nonterminal {fill: #9EBFFF; stroke: #001133; stroke-width: 1;}
            rect.text {fill: none; stroke: none;}
            polygon.regexp {fill: #C7DAFF; stroke: #001133; stroke-width: 1;}
        </style>
    </defs>
    <polygon points="9 95 1 91 1 99"/>
    <polygon points="17 95 9 91 9 99"/>
    <a xmlns:xlink="http://www.w3.org/1999/xlink" xlink:href="#Builder" xlink:title="Builder">
        <rect x="31" y="81" width="64" height="32"/>
        <rect x="29" y="79" width="64" height="32" class="nonterminal"/>
        <text class="nonterminal" x="39" y="99">Builder</text>
    </a>
    <rect x="155" y="81" width="70" height="32" rx="10"/>
    <rect x="153" y="79" width="70" height="32" class="terminal" rx="10"/>
    <text class="terminal" x="163" y="99">SELECT</text>
    <rect x="155" y="125" width="104" height="32" rx="10"/>
    <rect x="153" y="123" width="104" height="32" class="terminal" rx="10"/>
    <text class="terminal" x="163" y="143">SELECT_ALL</text>
    <rect x="155" y="169" width="146" height="32" rx="10"/>
    <rect x="153" y="167" width="146" height="32" class="terminal" rx="10"/>
    <text class="terminal" x="163" y="187">SELECT_DISTINCT</text>
    <rect x="341" y="81" width="60" height="32" rx="10"/>
    <rect x="339" y="79" width="60" height="32" class="terminal" rx="10"/>
    <text class="terminal" x="349" y="99">FROM</text>
    <rect x="135" y="213" width="196" height="32" rx="10"/>
    <rect x="133" y="211" width="196" height="32" class="terminal" rx="10"/>
    <text class="terminal" x="143" y="231">SELECT_ASTERISK_FROM</text>
    <rect x="461" y="81" width="70" height="32" rx="10"/>
    <rect x="459" y="79" width="70" height="32" class="terminal" rx="10"/>
    <text class="terminal" x="469" y="99">WHERE</text>
    <rect x="571" y="47" width="48" height="32" rx="10"/>
    <rect x="569" y="45" width="48" height="32" class="terminal" rx="10"/>
    <text class="terminal" x="579" y="65">AND</text>
    <rect x="571" y="3" width="40" height="32" rx="10"/>
    <rect x="569" y="1" width="40" height="32" class="terminal" rx="10"/>
    <text class="terminal" x="579" y="21">OR</text>
    <rect x="699" y="113" width="90" height="32" rx="10"/>
    <rect x="697" y="111" width="90" height="32" class="terminal" rx="10"/>
    <text class="terminal" x="707" y="131">ORDER BY</text>
    <path xmlns:svg="http://www.w3.org/2000/svg" class="line"
          d="m17 95 h2 m0 0 h10 m64 0 h10 m40 0 h10 m70 0 h10 m0 0 h76 m-186 0 h20 m166 0 h20 m-206 0 q10 0 10 10 m186 0 q0 -10 10 -10 m-196 10 v24 m186 0 v-24 m-186 24 q0 10 10 10 m166 0 q10 0 10 -10 m-176 10 h10 m104 0 h10 m0 0 h42 m-176 -10 v20 m186 0 v-20 m-186 20 v24 m186 0 v-24 m-186 24 q0 10 10 10 m166 0 q10 0 10 -10 m-176 10 h10 m146 0 h10 m20 -88 h10 m60 0 h10 m-306 0 h20 m286 0 h20 m-326 0 q10 0 10 10 m306 0 q0 -10 10 -10 m-316 10 v112 m306 0 v-112 m-306 112 q0 10 10 10 m286 0 q10 0 10 -10 m-296 10 h10 m196 0 h10 m0 0 h70 m40 -132 h10 m70 0 h10 m20 0 h10 m0 0 h58 m-88 0 l20 0 m-1 0 q-9 0 -9 -10 l0 -14 q0 -10 10 -10 m68 34 l20 0 m-20 0 q10 0 10 -10 l0 -14 q0 -10 -10 -10 m-68 0 h10 m48 0 h10 m-78 10 l0 -44 q0 -10 10 -10 m78 54 l0 -44 q0 -10 -10 -10 m-68 0 h10 m40 0 h10 m0 0 h8 m-198 78 h20 m198 0 h20 m-238 0 q10 0 10 10 m218 0 q0 -10 10 -10 m-228 10 v14 m218 0 v-14 m-218 14 q0 10 10 10 m198 0 q10 0 10 -10 m-208 10 h10 m0 0 h188 m40 -34 h10 m0 0 h100 m-130 0 h20 m110 0 h20 m-150 0 q10 0 10 10 m130 0 q0 -10 10 -10 m-140 10 v12 m130 0 v-12 m-130 12 q0 10 10 10 m110 0 q10 0 10 -10 m-120 10 h10 m90 0 h10 m23 -32 h-3"/>
    <polygon points="827 95 835 91 835 99"/>
    <polygon points="827 95 819 91 819 99"/>
</svg>
