<svg xmlns="http://www.w3.org/2000/svg" width="2017" height="367">
    <defs>
        <style type="text/css">
            @namespace "http://www.w3.org/2000/svg";
            .line {fill: none; stroke: #001133; stroke-width: 1;}
            .bold-line {stroke: #000714; shape-rendering: crispEdges; stroke-width: 2;}
            .thin-line {stroke: #000A1F; shape-rendering: crispEdges}
            .filled {fill: #001133; stroke: none;}
            text.terminal {font-family: Verdana, Sans-serif;
            font-size: 12px;
            fill: #000714;
            font-weight: bold;
            }
            text.nonterminal {font-family: Verdana, Sans-serif;
            font-size: 12px;
            fill: #00091A;
            font-weight: normal;
            }
            text.regexp {font-family: Verdana, Sans-serif;
            font-size: 12px;
            fill: #000A1F;
            font-weight: normal;
            }
            rect, circle, polygon {fill: #001133; stroke: #001133;}
            rect.terminal {fill: #4D88FF; stroke: #001133; stroke-width: 1;}
            rect.nonterminal {fill: #9EBFFF; stroke: #001133; stroke-width: 1;}
            rect.text {fill: none; stroke: none;}
            polygon.regexp {fill: #C7DAFF; stroke: #001133; stroke-width: 1;}
        </style>
    </defs>
    <polygon points="9 111 1 107 1 115"/>
    <polygon points="17 111 9 107 9 115"/>
    <a xmlns:xlink="http://www.w3.org/1999/xlink" xlink:href="#Builder" xlink:title="Builder">
        <rect x="31" y="97" width="64" height="32"/>
        <rect x="29" y="95" width="64" height="32" class="nonterminal"/>
        <text class="nonterminal" x="39" y="115">Builder</text>
    </a>
    <rect x="155" y="97" width="70" height="32" rx="10"/>
    <rect x="153" y="95" width="70" height="32" class="terminal" rx="10"/>
    <text class="terminal" x="163" y="115">SELECT</text>
    <rect x="155" y="141" width="104" height="32" rx="10"/>
    <rect x="153" y="139" width="104" height="32" class="terminal" rx="10"/>
    <text class="terminal" x="163" y="159">SELECT_ALL</text>
    <rect x="155" y="185" width="146" height="32" rx="10"/>
    <rect x="153" y="183" width="146" height="32" class="terminal" rx="10"/>
    <text class="terminal" x="163" y="203">SELECT_DISTINCT</text>
    <rect x="341" y="97" width="60" height="32" rx="10"/>
    <rect x="339" y="95" width="60" height="32" class="terminal" rx="10"/>
    <text class="terminal" x="349" y="115">FROM</text>
    <rect x="135" y="229" width="196" height="32" rx="10"/>
    <rect x="133" y="227" width="196" height="32" class="terminal" rx="10"/>
    <text class="terminal" x="143" y="247">SELECT_ASTERISK_FROM</text>
    <rect x="521" y="97" width="54" height="32" rx="10"/>
    <rect x="519" y="95" width="54" height="32" class="terminal" rx="10"/>
    <text class="terminal" x="529" y="115">JOIN</text>
    <rect x="521" y="141" width="96" height="32" rx="10"/>
    <rect x="519" y="139" width="96" height="32" class="terminal" rx="10"/>
    <text class="terminal" x="529" y="159">LEFT_JOIN</text>
    <rect x="521" y="185" width="106" height="32" rx="10"/>
    <rect x="519" y="183" width="106" height="32" class="terminal" rx="10"/>
    <text class="terminal" x="529" y="203">RIGHT_JOIN</text>
    <rect x="521" y="229" width="108" height="32" rx="10"/>
    <rect x="519" y="227" width="108" height="32" class="terminal" rx="10"/>
    <text class="terminal" x="529" y="247">INNER_JOIN</text>
    <rect x="521" y="273" width="152" height="32" rx="10"/>
    <rect x="519" y="271" width="152" height="32" class="terminal" rx="10"/>
    <text class="terminal" x="529" y="291">FULL_OUTER_JOIN</text>
    <rect x="733" y="97" width="40" height="32" rx="10"/>
    <rect x="731" y="95" width="40" height="32" class="terminal" rx="10"/>
    <text class="terminal" x="741" y="115">ON</text>
    <rect x="813" y="63" width="48" height="32" rx="10"/>
    <rect x="811" y="61" width="48" height="32" class="terminal" rx="10"/>
    <text class="terminal" x="821" y="81">AND</text>
    <rect x="813" y="19" width="40" height="32" rx="10"/>
    <rect x="811" y="17" width="40" height="32" class="terminal" rx="10"/>
    <text class="terminal" x="821" y="37">OR</text>
    <rect x="501" y="317" width="110" height="32" rx="10"/>
    <rect x="499" y="315" width="110" height="32" class="terminal" rx="10"/>
    <text class="terminal" x="509" y="335">CROSS_JOIN</text>
    <rect x="1001" y="97" width="70" height="32" rx="10"/>
    <rect x="999" y="95" width="70" height="32" class="terminal" rx="10"/>
    <text class="terminal" x="1009" y="115">WHERE</text>
    <rect x="1111" y="63" width="48" height="32" rx="10"/>
    <rect x="1109" y="61" width="48" height="32" class="terminal" rx="10"/>
    <text class="terminal" x="1119" y="81">AND</text>
    <rect x="1111" y="19" width="40" height="32" rx="10"/>
    <rect x="1109" y="17" width="40" height="32" class="terminal" rx="10"/>
    <text class="terminal" x="1119" y="37">OR</text>
    <rect x="1239" y="97" width="86" height="32" rx="10"/>
    <rect x="1237" y="95" width="86" height="32" class="terminal" rx="10"/>
    <text class="terminal" x="1247" y="115">GROUPBY</text>
    <rect x="1365" y="97" width="74" height="32" rx="10"/>
    <rect x="1363" y="95" width="74" height="32" class="terminal" rx="10"/>
    <text class="terminal" x="1373" y="115">HAVING</text>
    <rect x="1479" y="63" width="48" height="32" rx="10"/>
    <rect x="1477" y="61" width="48" height="32" class="terminal" rx="10"/>
    <text class="terminal" x="1487" y="81">AND</text>
    <rect x="1479" y="19" width="40" height="32" rx="10"/>
    <rect x="1477" y="17" width="40" height="32" class="terminal" rx="10"/>
    <text class="terminal" x="1487" y="37">OR</text>
    <rect x="1627" y="129" width="90" height="32" rx="10"/>
    <rect x="1625" y="127" width="90" height="32" class="terminal" rx="10"/>
    <text class="terminal" x="1635" y="147">ORDER BY</text>
    <rect x="1777" y="129" width="60" height="32" rx="10"/>
    <rect x="1775" y="127" width="60" height="32" class="terminal" rx="10"/>
    <text class="terminal" x="1785" y="147">LIMIT</text>
    <rect x="1897" y="129" width="72" height="32" rx="10"/>
    <rect x="1895" y="127" width="72" height="32" class="terminal" rx="10"/>
    <text class="terminal" x="1905" y="147">OFFSET</text>
    <path xmlns:svg="http://www.w3.org/2000/svg" class="line"
          d="m17 111 h2 m0 0 h10 m64 0 h10 m40 0 h10 m70 0 h10 m0 0 h76 m-186 0 h20 m166 0 h20 m-206 0 q10 0 10 10 m186 0 q0 -10 10 -10 m-196 10 v24 m186 0 v-24 m-186 24 q0 10 10 10 m166 0 q10 0 10 -10 m-176 10 h10 m104 0 h10 m0 0 h42 m-176 -10 v20 m186 0 v-20 m-186 20 v24 m186 0 v-24 m-186 24 q0 10 10 10 m166 0 q10 0 10 -10 m-176 10 h10 m146 0 h10 m20 -88 h10 m60 0 h10 m-306 0 h20 m286 0 h20 m-326 0 q10 0 10 10 m306 0 q0 -10 10 -10 m-316 10 v112 m306 0 v-112 m-306 112 q0 10 10 10 m286 0 q10 0 10 -10 m-296 10 h10 m196 0 h10 m0 0 h70 m100 -132 h10 m54 0 h10 m0 0 h98 m-192 0 h20 m172 0 h20 m-212 0 q10 0 10 10 m192 0 q0 -10 10 -10 m-202 10 v24 m192 0 v-24 m-192 24 q0 10 10 10 m172 0 q10 0 10 -10 m-182 10 h10 m96 0 h10 m0 0 h56 m-182 -10 v20 m192 0 v-20 m-192 20 v24 m192 0 v-24 m-192 24 q0 10 10 10 m172 0 q10 0 10 -10 m-182 10 h10 m106 0 h10 m0 0 h46 m-182 -10 v20 m192 0 v-20 m-192 20 v24 m192 0 v-24 m-192 24 q0 10 10 10 m172 0 q10 0 10 -10 m-182 10 h10 m108 0 h10 m0 0 h44 m-182 -10 v20 m192 0 v-20 m-192 20 v24 m192 0 v-24 m-192 24 q0 10 10 10 m172 0 q10 0 10 -10 m-182 10 h10 m152 0 h10 m40 -176 h10 m40 0 h10 m20 0 h10 m0 0 h58 m-88 0 l20 0 m-1 0 q-9 0 -9 -10 l0 -14 q0 -10 10 -10 m68 34 l20 0 m-20 0 q10 0 10 -10 l0 -14 q0 -10 -10 -10 m-68 0 h10 m48 0 h10 m-78 10 l0 -44 q0 -10 10 -10 m78 54 l0 -44 q0 -10 -10 -10 m-68 0 h10 m40 0 h10 m0 0 h8 m-168 78 h20 m168 0 h20 m-208 0 q10 0 10 10 m188 0 q0 -10 10 -10 m-198 10 v14 m188 0 v-14 m-188 14 q0 10 10 10 m168 0 q10 0 10 -10 m-178 10 h10 m0 0 h158 m-420 -34 h20 m420 0 h20 m-460 0 q10 0 10 10 m440 0 q0 -10 10 -10 m-450 10 v200 m440 0 v-200 m-440 200 q0 10 10 10 m420 0 q10 0 10 -10 m-430 10 h10 m110 0 h10 m0 0 h290 m-460 -220 l20 0 m-1 0 q-9 0 -9 -10 l0 -90 q0 -10 10 -10 m460 110 l20 0 m-20 0 q10 0 10 -10 l0 -90 q0 -10 -10 -10 m-460 0 h10 m0 0 h450 m-500 110 h20 m500 0 h20 m-540 0 q10 0 10 10 m520 0 q0 -10 10 -10 m-530 10 v234 m520 0 v-234 m-520 234 q0 10 10 10 m500 0 q10 0 10 -10 m-510 10 h10 m0 0 h490 m40 -254 h10 m70 0 h10 m20 0 h10 m0 0 h58 m-88 0 l20 0 m-1 0 q-9 0 -9 -10 l0 -14 q0 -10 10 -10 m68 34 l20 0 m-20 0 q10 0 10 -10 l0 -14 q0 -10 -10 -10 m-68 0 h10 m48 0 h10 m-78 10 l0 -44 q0 -10 10 -10 m78 54 l0 -44 q0 -10 -10 -10 m-68 0 h10 m40 0 h10 m0 0 h8 m-198 78 h20 m198 0 h20 m-238 0 q10 0 10 10 m218 0 q0 -10 10 -10 m-228 10 v14 m218 0 v-14 m-218 14 q0 10 10 10 m198 0 q10 0 10 -10 m-208 10 h10 m0 0 h188 m40 -34 h10 m86 0 h10 m20 0 h10 m74 0 h10 m20 0 h10 m0 0 h58 m-88 0 l20 0 m-1 0 q-9 0 -9 -10 l0 -14 q0 -10 10 -10 m68 34 l20 0 m-20 0 q10 0 10 -10 l0 -14 q0 -10 -10 -10 m-68 0 h10 m48 0 h10 m-78 10 l0 -44 q0 -10 10 -10 m78 54 l0 -44 q0 -10 -10 -10 m-68 0 h10 m40 0 h10 m0 0 h8 m-202 78 h20 m202 0 h20 m-242 0 q10 0 10 10 m222 0 q0 -10 10 -10 m-232 10 v14 m222 0 v-14 m-222 14 q0 10 10 10 m202 0 q10 0 10 -10 m-212 10 h10 m0 0 h192 m-348 -34 h20 m348 0 h20 m-388 0 q10 0 10 10 m368 0 q0 -10 10 -10 m-378 10 v30 m368 0 v-30 m-368 30 q0 10 10 10 m348 0 q10 0 10 -10 m-358 10 h10 m0 0 h338 m40 -50 h10 m0 0 h100 m-130 0 h20 m110 0 h20 m-150 0 q10 0 10 10 m130 0 q0 -10 10 -10 m-140 10 v12 m130 0 v-12 m-130 12 q0 10 10 10 m110 0 q10 0 10 -10 m-120 10 h10 m90 0 h10 m40 -32 h10 m0 0 h70 m-100 0 h20 m80 0 h20 m-120 0 q10 0 10 10 m100 0 q0 -10 10 -10 m-110 10 v12 m100 0 v-12 m-100 12 q0 10 10 10 m80 0 q10 0 10 -10 m-90 10 h10 m60 0 h10 m40 -32 h10 m0 0 h82 m-112 0 h20 m92 0 h20 m-132 0 q10 0 10 10 m112 0 q0 -10 10 -10 m-122 10 v12 m112 0 v-12 m-112 12 q0 10 10 10 m92 0 q10 0 10 -10 m-102 10 h10 m72 0 h10 m23 -32 h-3"/>
    <polygon points="2007 111 2015 107 2015 115"/>
    <polygon points="2007 111 1999 107 1999 115"/>
</svg>
