<?xml version="1.0" encoding="UTF-8" standalone="no"?>
<svg xmlns="http://www.w3.org/2000/svg" xmlns:xlink="http://www.w3.org/1999/xlink"
     contentScriptType="application/ecmascript" contentStyleType="text/css" height="1603px" preserveAspectRatio="none"
     style="width:695px;height:1603px;background:#FFFFFF;" version="1.1" viewBox="0 0 695 1603" width="695px"
     zoomAndPan="magnify">
    <defs>
        <filter height="300%" id="f6vzos42uyr74" width="300%" x="-1" y="-1">
            <feGaussianBlur result="blurOut" stdDeviation="2.0"/>
            <feColorMatrix in="blurOut" result="blurOut2" type="matrix"
                           values="0 0 0 0 0 0 0 0 0 0 0 0 0 0 0 0 0 0 .4 0"/>
            <feOffset dx="4.0" dy="4.0" in="blurOut2" result="blurOut3"/>
            <feBlend in="SourceGraphic" in2="blurOut3" mode="normal"/>
        </filter>
    </defs>
    <g>
        <rect fill="#ADD8E6" filter="url(#f6vzos42uyr74)" height="36.4883" rx="12.5" ry="12.5"
              style="stroke:#A80036;stroke-width:1.5;" width="116" x="10" y="104.7324"/>
        <text fill="#000000" font-family="sans-serif" font-size="14" lengthAdjust="spacing" textLength="92" x="20"
              y="128.2676">PrimitiveType
        </text>
        <rect fill="#008000" filter="url(#f6vzos42uyr74)" height="36.4883" rx="12.5" ry="12.5"
              style="stroke:#A80036;stroke-width:1.5;" width="50" x="176" y="20"/>
        <text fill="#000000" font-family="sans-serif" font-size="14" lengthAdjust="spacing" textLength="26" x="186"
              y="43.5352">null
        </text>
        <path d="M126,122.9766 L136,122.9766 C151,122.9766 151,38.2441 166,38.2441 L176,38.2441 " fill="none"
              style="stroke:#A80036;stroke-width:1.0;"/>
        <rect fill="#90EE90" filter="url(#f6vzos42uyr74)" height="36.4883" rx="12.5" ry="12.5"
              style="stroke:#A80036;stroke-width:1.5;" width="80" x="176" y="76.4883"/>
        <text fill="#000000" font-family="sans-serif" font-size="14" lengthAdjust="spacing" textLength="56" x="186"
              y="100.0234">boolean
        </text>
        <path d="M126,122.9766 L136,122.9766 C151,122.9766 151,94.7324 166,94.7324 L176,94.7324 " fill="none"
              style="stroke:#A80036;stroke-width:1.0;"/>
        <rect fill="#90EE90" filter="url(#f6vzos42uyr74)" height="36.4883" rx="12.5" ry="12.5"
              style="stroke:#A80036;stroke-width:1.5;" width="78" x="176" y="132.9766"/>
        <text fill="#000000" font-family="sans-serif" font-size="14" lengthAdjust="spacing" textLength="54" x="186"
              y="156.5117">number
        </text>
        <path d="M126,122.9766 L136,122.9766 C151,122.9766 151,151.2207 166,151.2207 L176,151.2207 " fill="none"
              style="stroke:#A80036;stroke-width:1.0;"/>
        <rect fill="#90EE90" filter="url(#f6vzos42uyr74)" height="36.4883" rx="12.5" ry="12.5"
              style="stroke:#A80036;stroke-width:1.5;" width="64" x="176" y="189.4648"/>
        <text fill="#000000" font-family="sans-serif" font-size="14" lengthAdjust="spacing" textLength="40" x="186"
              y="213">string
        </text>
        <path d="M126,122.9766 L136,122.9766 C151,122.9766 151,207.709 166,207.709 L176,207.709 " fill="none"
              style="stroke:#A80036;stroke-width:1.0;"/>
        <rect fill="#ADD8E6" filter="url(#f6vzos42uyr74)" height="36.4883" rx="12.5" ry="12.5"
              style="stroke:#A80036;stroke-width:1.5;" width="94" x="10" y="288.3193"/>
        <text fill="#000000" font-family="sans-serif" font-size="14" lengthAdjust="spacing" textLength="70" x="20"
              y="311.8545">SelectItem
        </text>
        <rect fill="#ADD8E6" filter="url(#f6vzos42uyr74)" height="36.4883" rx="12.5" ry="12.5"
              style="stroke:#A80036;stroke-width:1.5;" width="105" x="154" y="274.1973"/>
        <text fill="#000000" font-family="sans-serif" font-size="14" lengthAdjust="spacing" textLength="81" x="164"
              y="297.7324">ColumnLike
        </text>
        <rect fill="#FFFF00" filter="url(#f6vzos42uyr74)" height="36.4883" rx="12.5" ry="12.5"
              style="stroke:#A80036;stroke-width:1.5;" width="78" x="309" y="245.9531"/>
        <text fill="#000000" font-family="sans-serif" font-size="14" lengthAdjust="spacing" textLength="54" x="319"
              y="269.4883">Column
        </text>
        <path d="M259,292.4414 L269,292.4414 C284,292.4414 284,264.1973 299,264.1973 L309,264.1973 " fill="none"
              style="stroke:#A80036;stroke-width:1.0;"/>
        <rect fill="#FFFF00" filter="url(#f6vzos42uyr74)" height="36.4883" rx="12.5" ry="12.5"
              style="stroke:#A80036;stroke-width:1.5;" width="100" x="309" y="302.4414"/>
        <text fill="#000000" font-family="sans-serif" font-size="14" lengthAdjust="spacing" textLength="76" x="319"
              y="325.9766">Expression
        </text>
        <path d="M259,292.4414 L269,292.4414 C284,292.4414 284,320.6855 299,320.6855 L309,320.6855 " fill="none"
              style="stroke:#A80036;stroke-width:1.0;"/>
        <path d="M104,306.5635 L114,306.5635 C129,306.5635 129,292.4414 144,292.4414 L154,292.4414 " fill="none"
              style="stroke:#A80036;stroke-width:1.0;"/>
        <rect fill="#FFFF00" filter="url(#f6vzos42uyr74)" height="36.4883" rx="12.5" ry="12.5"
              style="stroke:#A80036;stroke-width:1.5;" width="79" x="154" y="330.6855"/>
        <text fill="#000000" font-family="sans-serif" font-size="14" lengthAdjust="spacing" textLength="55" x="164"
              y="354.2207">Asterisk
        </text>
        <path d="M104,306.5635 L114,306.5635 C129,306.5635 129,348.9297 144,348.9297 L154,348.9297 " fill="none"
              style="stroke:#A80036;stroke-width:1.0;"/>
        <rect fill="#ADD8E6" filter="url(#f6vzos42uyr74)" height="36.4883" rx="12.5" ry="12.5"
              style="stroke:#A80036;stroke-width:1.5;" width="117" x="10" y="542.5166"/>
        <text fill="#000000" font-family="sans-serif" font-size="14" lengthAdjust="spacing" textLength="93" x="20"
              y="566.0518">OperandType
        </text>
        <rect fill="#FFFF00" filter="url(#f6vzos42uyr74)" height="36.4883" rx="12.5" ry="12.5"
              style="stroke:#A80036;stroke-width:1.5;" width="100" x="177" y="486.0283"/>
        <text fill="#000000" font-family="sans-serif" font-size="14" lengthAdjust="spacing" textLength="76" x="187"
              y="509.5635">Expression
        </text>
        <path d="M127,560.7607 L137,560.7607 C152,560.7607 152,504.2725 167,504.2725 L177,504.2725 " fill="none"
              style="stroke:#A80036;stroke-width:1.0;"/>
        <rect fill="#ADD8E6" filter="url(#f6vzos42uyr74)" height="36.4883" rx="12.5" ry="12.5"
              style="stroke:#A80036;stroke-width:1.5;" width="95" x="177" y="542.5166"/>
        <text fill="#000000" font-family="sans-serif" font-size="14" lengthAdjust="spacing" textLength="71" x="187"
              y="566.0518">ValueType
        </text>
        <rect fill="#008000" filter="url(#f6vzos42uyr74)" height="36.4883" rx="12.5" ry="12.5"
              style="stroke:#A80036;stroke-width:1.5;" width="50" x="322" y="387.1738"/>
        <text fill="#000000" font-family="sans-serif" font-size="14" lengthAdjust="spacing" textLength="26" x="332"
              y="410.709">null
        </text>
        <path d="M272,560.7607 L282,560.7607 C297,560.7607 297,405.418 312,405.418 L322,405.418 " fill="none"
              style="stroke:#A80036;stroke-width:1.0;"/>
        <rect fill="#ADD8E6" filter="url(#f6vzos42uyr74)" height="36.4883" rx="12.5" ry="12.5"
              style="stroke:#A80036;stroke-width:1.5;" width="106" x="322" y="443.6621"/>
        <text fill="#000000" font-family="sans-serif" font-size="14" lengthAdjust="spacing" textLength="82" x="332"
              y="467.1973">BooleanLike
        </text>
        <rect fill="#90EE90" filter="url(#f6vzos42uyr74)" height="36.4883" rx="12.5" ry="12.5"
              style="stroke:#A80036;stroke-width:1.5;" width="80" x="478" y="415.418"/>
        <text fill="#000000" font-family="sans-serif" font-size="14" lengthAdjust="spacing" textLength="56" x="488"
              y="438.9531">boolean
        </text>
        <path d="M428,461.9063 L438,461.9063 C453,461.9063 453,433.6621 468,433.6621 L478,433.6621 " fill="none"
              style="stroke:#A80036;stroke-width:1.0;"/>
        <rect fill="#FFFF00" filter="url(#f6vzos42uyr74)" height="36.4883" rx="12.5" ry="12.5"
              style="stroke:#A80036;stroke-width:1.5;" width="133" x="478" y="471.9063"/>
        <text fill="#000000" font-family="sans-serif" font-size="14" lengthAdjust="spacing" textLength="109" x="488"
              y="495.4414">BooleanColumn
        </text>
        <path d="M428,461.9063 L438,461.9063 C453,461.9063 453,490.1504 468,490.1504 L478,490.1504 " fill="none"
              style="stroke:#A80036;stroke-width:1.0;"/>
        <path d="M272,560.7607 L282,560.7607 C297,560.7607 297,461.9063 312,461.9063 L322,461.9063 " fill="none"
              style="stroke:#A80036;stroke-width:1.0;"/>
        <rect fill="#ADD8E6" filter="url(#f6vzos42uyr74)" height="36.4883" rx="12.5" ry="12.5"
              style="stroke:#A80036;stroke-width:1.5;" width="106" x="322" y="556.6387"/>
        <text fill="#000000" font-family="sans-serif" font-size="14" lengthAdjust="spacing" textLength="82" x="332"
              y="580.1738">NumberLike
        </text>
        <rect fill="#90EE90" filter="url(#f6vzos42uyr74)" height="36.4883" rx="12.5" ry="12.5"
              style="stroke:#A80036;stroke-width:1.5;" width="78" x="478" y="528.3945"/>
        <text fill="#000000" font-family="sans-serif" font-size="14" lengthAdjust="spacing" textLength="54" x="488"
              y="551.9297">number
        </text>
        <path d="M428,574.8828 L438,574.8828 C453,574.8828 453,546.6387 468,546.6387 L478,546.6387 " fill="none"
              style="stroke:#A80036;stroke-width:1.0;"/>
        <rect fill="#FFFF00" filter="url(#f6vzos42uyr74)" height="36.4883" rx="12.5" ry="12.5"
              style="stroke:#A80036;stroke-width:1.5;" width="133" x="478" y="584.8828"/>
        <text fill="#000000" font-family="sans-serif" font-size="14" lengthAdjust="spacing" textLength="109" x="488"
              y="608.418">NumberColumn
        </text>
        <path d="M428,574.8828 L438,574.8828 C453,574.8828 453,603.127 468,603.127 L478,603.127 " fill="none"
              style="stroke:#A80036;stroke-width:1.0;"/>
        <path d="M272,560.7607 L282,560.7607 C297,560.7607 297,574.8828 312,574.8828 L322,574.8828 " fill="none"
              style="stroke:#A80036;stroke-width:1.0;"/>
        <rect fill="#ADD8E6" filter="url(#f6vzos42uyr74)" height="36.4883" rx="12.5" ry="12.5"
              style="stroke:#A80036;stroke-width:1.5;" width="82" x="322" y="669.6152"/>
        <text fill="#000000" font-family="sans-serif" font-size="14" lengthAdjust="spacing" textLength="58" x="332"
              y="693.1504">TextLike
        </text>
        <rect fill="#90EE90" filter="url(#f6vzos42uyr74)" height="36.4883" rx="12.5" ry="12.5"
              style="stroke:#A80036;stroke-width:1.5;" width="64" x="454" y="641.3711"/>
        <text fill="#000000" font-family="sans-serif" font-size="14" lengthAdjust="spacing" textLength="40" x="464"
              y="664.9063">string
        </text>
        <path d="M404,687.8594 L414,687.8594 C429,687.8594 429,659.6152 444,659.6152 L454,659.6152 " fill="none"
              style="stroke:#A80036;stroke-width:1.0;"/>
        <rect fill="#FFFF00" filter="url(#f6vzos42uyr74)" height="36.4883" rx="12.5" ry="12.5"
              style="stroke:#A80036;stroke-width:1.5;" width="113" x="454" y="697.8594"/>
        <text fill="#000000" font-family="sans-serif" font-size="14" lengthAdjust="spacing" textLength="85" x="464"
              y="721.3945">TextColumn
        </text>
        <path d="M404,687.8594 L414,687.8594 C429,687.8594 429,716.1035 444,716.1035 L454,716.1035 " fill="none"
              style="stroke:#A80036;stroke-width:1.0;"/>
        <path d="M272,560.7607 L282,560.7607 C297,560.7607 297,687.8594 312,687.8594 L322,687.8594 " fill="none"
              style="stroke:#A80036;stroke-width:1.0;"/>
        <path d="M127,560.7607 L137,560.7607 C152,560.7607 152,560.7607 167,560.7607 L177,560.7607 " fill="none"
              style="stroke:#A80036;stroke-width:1.0;"/>
        <rect fill="#ADD8E6" filter="url(#f6vzos42uyr74)" height="36.4883" rx="12.5" ry="12.5"
              style="stroke:#A80036;stroke-width:1.5;" width="86" x="10" y="1149.7656"/>
        <text fill="#000000" font-family="sans-serif" font-size="14" lengthAdjust="spacing" textLength="62" x="20"
              y="1173.3008">Operator
        </text>
        <rect fill="#EE82EE" filter="url(#f6vzos42uyr74)" height="36.4883" rx="12.5" ry="12.5"
              style="stroke:#A80036;stroke-width:1.5;" width="157" x="146" y="895.5684"/>
        <text fill="#000000" font-family="sans-serif" font-size="14" lengthAdjust="spacing" textLength="133" x="156"
              y="919.1035">ArithmeticOperator
        </text>
        <rect fill="#FFC0CB" filter="url(#f6vzos42uyr74)" height="36.4883" rx="12.5" ry="12.5"
              style="stroke:#A80036;stroke-width:1.5;" width="90" x="353" y="754.3477"/>
        <text fill="#000000" font-family="sans-serif" font-size="14" lengthAdjust="spacing" textLength="66" x="363"
              y="777.8828">ADD = '+'
        </text>
        <path d="M303,913.8125 L313,913.8125 C328,913.8125 328,772.5918 343,772.5918 L353,772.5918 " fill="none"
              style="stroke:#A80036;stroke-width:1.0;"/>
        <rect fill="#FFC0CB" filter="url(#f6vzos42uyr74)" height="36.4883" rx="12.5" ry="12.5"
              style="stroke:#A80036;stroke-width:1.5;" width="83" x="353" y="810.8359"/>
        <text fill="#000000" font-family="sans-serif" font-size="14" lengthAdjust="spacing" textLength="59" x="363"
              y="834.3711">SUB = '-'
        </text>
        <path d="M303,913.8125 L313,913.8125 C328,913.8125 328,829.0801 343,829.0801 L353,829.0801 " fill="none"
              style="stroke:#A80036;stroke-width:1.0;"/>
        <rect fill="#FFC0CB" filter="url(#f6vzos42uyr74)" height="36.4883" rx="12.5" ry="12.5"
              style="stroke:#A80036;stroke-width:1.5;" width="85" x="353" y="867.3242"/>
        <text fill="#000000" font-family="sans-serif" font-size="14" lengthAdjust="spacing" textLength="61" x="363"
              y="890.8594">MUL = '*'
        </text>
        <path d="M303,913.8125 L313,913.8125 C328,913.8125 328,885.5684 343,885.5684 L353,885.5684 " fill="none"
              style="stroke:#A80036;stroke-width:1.0;"/>
        <rect fill="#FFC0CB" filter="url(#f6vzos42uyr74)" height="36.4883" rx="12.5" ry="12.5"
              style="stroke:#A80036;stroke-width:1.5;" width="79" x="353" y="923.8125"/>
        <text fill="#000000" font-family="sans-serif" font-size="14" lengthAdjust="spacing" textLength="55" x="363"
              y="947.3477">DIV = '/'
        </text>
        <path d="M303,913.8125 L313,913.8125 C328,913.8125 328,942.0566 343,942.0566 L353,942.0566 " fill="none"
              style="stroke:#A80036;stroke-width:1.0;"/>
        <rect fill="#FFC0CB" filter="url(#f6vzos42uyr74)" height="36.4883" rx="12.5" ry="12.5"
              style="stroke:#A80036;stroke-width:1.5;" width="91" x="353" y="980.3008"/>
        <text fill="#000000" font-family="sans-serif" font-size="14" lengthAdjust="spacing" textLength="67" x="363"
              y="1003.8359">MOD = '%'
        </text>
        <path d="M303,913.8125 L313,913.8125 C328,913.8125 328,998.5449 343,998.5449 L353,998.5449 " fill="none"
              style="stroke:#A80036;stroke-width:1.0;"/>
        <rect fill="#FFC0CB" filter="url(#f6vzos42uyr74)" height="36.4883" rx="12.5" ry="12.5"
              style="stroke:#A80036;stroke-width:1.5;" width="83" x="353" y="1036.7891"/>
        <text fill="#000000" font-family="sans-serif" font-size="14" lengthAdjust="spacing" textLength="59" x="363"
              y="1060.3242">EXP = '^'
        </text>
        <path d="M303,913.8125 L313,913.8125 C328,913.8125 328,1055.0332 343,1055.0332 L353,1055.0332 " fill="none"
              style="stroke:#A80036;stroke-width:1.0;"/>
        <path d="M96,1168.0098 L106,1168.0098 C121,1168.0098 121,913.8125 136,913.8125 L146,913.8125 " fill="none"
              style="stroke:#A80036;stroke-width:1.0;"/>
        <rect fill="#EE82EE" filter="url(#f6vzos42uyr74)" height="36.4883" rx="12.5" ry="12.5"
              style="stroke:#A80036;stroke-width:1.5;" width="117" x="146" y="1093.2773"/>
        <text fill="#000000" font-family="sans-serif" font-size="14" lengthAdjust="spacing" textLength="93" x="156"
              y="1116.8125">TextOperator
        </text>
        <rect fill="#FFC0CB" filter="url(#f6vzos42uyr74)" height="36.4883" rx="12.5" ry="12.5"
              style="stroke:#A80036;stroke-width:1.5;" width="119" x="313" y="1093.2773"/>
        <text fill="#000000" font-family="sans-serif" font-size="14" lengthAdjust="spacing" textLength="95" x="323"
              y="1116.8125">CONCAT = '||'
        </text>
        <path d="M263,1111.5215 L273,1111.5215 C288,1111.5215 288,1111.5215 303,1111.5215 L313,1111.5215 " fill="none"
              style="stroke:#A80036;stroke-width:1.0;"/>
        <path d="M96,1168.0098 L106,1168.0098 C121,1168.0098 121,1111.5215 136,1111.5215 L146,1111.5215 " fill="none"
              style="stroke:#A80036;stroke-width:1.0;"/>
        <rect fill="#ADD8E6" filter="url(#f6vzos42uyr74)" height="36.4883" rx="12.5" ry="12.5"
              style="stroke:#A80036;stroke-width:1.5;" width="83" x="146" y="1347.4746"/>
        <text fill="#000000" font-family="sans-serif" font-size="14" lengthAdjust="spacing" textLength="59" x="156"
              y="1371.0098">Qualifier
        </text>
        <rect fill="#EE82EE" filter="url(#f6vzos42uyr74)" height="36.4883" rx="12.5" ry="12.5"
              style="stroke:#A80036;stroke-width:1.5;" width="170" x="279" y="1290.9863"/>
        <text fill="#000000" font-family="sans-serif" font-size="14" lengthAdjust="spacing" textLength="146" x="289"
              y="1314.5215">ComparisonOperator
        </text>
        <rect fill="#FFC0CB" filter="url(#f6vzos42uyr74)" height="36.4883" rx="12.5" ry="12.5"
              style="stroke:#A80036;stroke-width:1.5;" width="98" x="499" y="1149.7656"/>
        <text fill="#000000" font-family="sans-serif" font-size="14" lengthAdjust="spacing" textLength="74" x="509"
              y="1173.3008">Equal = '='
        </text>
        <path d="M449,1309.2305 L459,1309.2305 C474,1309.2305 474,1168.0098 489,1168.0098 L499,1168.0098 " fill="none"
              style="stroke:#A80036;stroke-width:1.0;"/>
        <rect fill="#FFC0CB" filter="url(#f6vzos42uyr74)" height="36.4883" rx="12.5" ry="12.5"
              style="stroke:#A80036;stroke-width:1.5;" width="133" x="499" y="1206.2539"/>
        <text fill="#000000" font-family="sans-serif" font-size="14" lengthAdjust="spacing" textLength="109" x="509"
              y="1229.7891">NotEqual = '&lt;&gt;'
        </text>
        <path d="M449,1309.2305 L459,1309.2305 C474,1309.2305 474,1224.498 489,1224.498 L499,1224.498 " fill="none"
              style="stroke:#A80036;stroke-width:1.0;"/>
        <rect fill="#FFC0CB" filter="url(#f6vzos42uyr74)" height="36.4883" rx="12.5" ry="12.5"
              style="stroke:#A80036;stroke-width:1.5;" width="146" x="499" y="1262.7422"/>
        <text fill="#000000" font-family="sans-serif" font-size="14" lengthAdjust="spacing" textLength="122" x="509"
              y="1286.2773">GreaterThan = '&gt;'
        </text>
        <path d="M449,1309.2305 L459,1309.2305 C474,1309.2305 474,1280.9863 489,1280.9863 L499,1280.9863 " fill="none"
              style="stroke:#A80036;stroke-width:1.0;"/>
        <rect fill="#FFC0CB" filter="url(#f6vzos42uyr74)" height="36.4883" rx="12.5" ry="12.5"
              style="stroke:#A80036;stroke-width:1.5;" width="177" x="499" y="1319.2305"/>
        <text fill="#000000" font-family="sans-serif" font-size="14" lengthAdjust="spacing" textLength="153" x="509"
              y="1342.7656">GreaterOrEqual = '&gt;='
        </text>
        <path d="M449,1309.2305 L459,1309.2305 C474,1309.2305 474,1337.4746 489,1337.4746 L499,1337.4746 " fill="none"
              style="stroke:#A80036;stroke-width:1.0;"/>
        <rect fill="#FFC0CB" filter="url(#f6vzos42uyr74)" height="36.4883" rx="12.5" ry="12.5"
              style="stroke:#A80036;stroke-width:1.5;" width="138" x="499" y="1375.7188"/>
        <text fill="#000000" font-family="sans-serif" font-size="14" lengthAdjust="spacing" textLength="114" x="509"
              y="1399.2539">LesserThan = '&lt;'
        </text>
        <path d="M449,1309.2305 L459,1309.2305 C474,1309.2305 474,1393.9629 489,1393.9629 L499,1393.9629 " fill="none"
              style="stroke:#A80036;stroke-width:1.0;"/>
        <rect fill="#FFC0CB" filter="url(#f6vzos42uyr74)" height="36.4883" rx="12.5" ry="12.5"
              style="stroke:#A80036;stroke-width:1.5;" width="169" x="499" y="1432.207"/>
        <text fill="#000000" font-family="sans-serif" font-size="14" lengthAdjust="spacing" textLength="145" x="509"
              y="1455.7422">LesserOrEqual = '&lt;='
        </text>
        <path d="M449,1309.2305 L459,1309.2305 C474,1309.2305 474,1450.4512 489,1450.4512 L499,1450.4512 " fill="none"
              style="stroke:#A80036;stroke-width:1.0;"/>
        <path d="M229,1365.7188 L239,1365.7188 C254,1365.7188 254,1309.2305 269,1309.2305 L279,1309.2305 " fill="none"
              style="stroke:#A80036;stroke-width:1.0;"/>
        <rect fill="#EE82EE" filter="url(#f6vzos42uyr74)" height="36.4883" rx="12.5" ry="12.5"
              style="stroke:#A80036;stroke-width:1.5;" width="113" x="279" y="1516.9395"/>
        <text fill="#000000" font-family="sans-serif" font-size="14" lengthAdjust="spacing" textLength="89" x="289"
              y="1540.4746">NullOperator
        </text>
        <rect fill="#FFC0CB" filter="url(#f6vzos42uyr74)" height="36.4883" rx="12.5" ry="12.5"
              style="stroke:#A80036;stroke-width:1.5;" width="72" x="442" y="1488.6953"/>
        <text fill="#000000" font-family="sans-serif" font-size="14" lengthAdjust="spacing" textLength="48" x="452"
              y="1512.2305">Is = 'IS'
        </text>
        <path d="M392,1535.1836 L402,1535.1836 C417,1535.1836 417,1506.9395 432,1506.9395 L442,1506.9395 " fill="none"
              style="stroke:#A80036;stroke-width:1.0;"/>
        <rect fill="#FFC0CB" filter="url(#f6vzos42uyr74)" height="36.4883" rx="12.5" ry="12.5"
              style="stroke:#A80036;stroke-width:1.5;" width="130" x="442" y="1545.1836"/>
        <text fill="#000000" font-family="sans-serif" font-size="14" lengthAdjust="spacing" textLength="106" x="452"
              y="1568.7188">IsNot = 'IS NOT'
        </text>
        <path d="M392,1535.1836 L402,1535.1836 C417,1535.1836 417,1563.4277 432,1563.4277 L442,1563.4277 " fill="none"
              style="stroke:#A80036;stroke-width:1.0;"/>
        <path d="M229,1365.7188 L239,1365.7188 C254,1365.7188 254,1535.1836 269,1535.1836 L279,1535.1836 " fill="none"
              style="stroke:#A80036;stroke-width:1.0;"/>
        <path d="M96,1168.0098 L106,1168.0098 C121,1168.0098 121,1365.7188 136,1365.7188 L146,1365.7188 " fill="none"
              style="stroke:#A80036;stroke-width:1.0;"/>
        <!--MD5=[1ce798f7c439e70ec1f07cb75f7a25e7]
        @startmindmap

        <style>
        mindmapDiagram {
          .primitive {
            BackgroundColor lightgreen
          }
          .type {
            BackgroundColor #lightblue
          }
          .class {
            BackgroundColor #yellow
          }
          .null {
            BackgroundColor #green
          }
          .enum {
            BackgroundColor #violet
          }
          .enumItem {
            BackgroundColor #pink
          }
        }
        </style>

        * PrimitiveType <<type>>
        ** null <<null>>
        ** boolean <<primitive>>
        ** number <<primitive>>
        ** string <<primitive>>

        * SelectItem <<type>>
        ** ColumnLike <<type>>
        *** Column <<class>>
        *** Expression <<class>>
        ** Asterisk <<class>>

        * OperandType <<type>>
        ** Expression <<class>>
        ** ValueType <<type>>
        *** null <<null>>
        *** BooleanLike <<type>>
        **** boolean <<primitive>>
        **** BooleanColumn <<class>>
        *** NumberLike <<type>>
        **** number <<primitive>>
        **** NumberColumn <<class>>
        *** TextLike <<type>>
        **** string <<primitive>>
        **** TextColumn  <<class>>

        * Operator <<type>>
        ** ArithmeticOperator <<enum>>
        *** ADD = '+' <<enumItem>>
        *** SUB = '-' <<enumItem>>
        *** MUL = '*' <<enumItem>>
        *** DIV = '/' <<enumItem>>
        *** MOD = '%' <<enumItem>>
        *** EXP = '^' <<enumItem>>
        ** TextOperator <<enum>>
        *** CONCAT = '||' <<enumItem>>
        ** Qualifier <<type>>
        *** ComparisonOperator <<enum>>
        **** Equal = '=' <<enumItem>>
        **** NotEqual = '<>' <<enumItem>>
        **** GreaterThan = '>' <<enumItem>>
        **** GreaterOrEqual = '>=' <<enumItem>>
        **** LesserThan = '<' <<enumItem>>
        **** LesserOrEqual = '<=' <<enumItem>>
        *** NullOperator <<enum>>
        **** Is = 'IS' <<enumItem>>
        **** IsNot = 'IS NOT' <<enumItem>>

        @endmindmap

PlantUML version 1.2022.0(Tue Jan 11 17:16:42 CET 2022)
(GPL source distribution)
Java Runtime: OpenJDK Runtime Environment
JVM: OpenJDK 64-Bit Server VM
Default Encoding: UTF-8
Language: en
Country: GB
-->
    </g>
</svg>
