<?xml version="1.0" encoding="UTF-8" standalone="no"?>
<svg xmlns="http://www.w3.org/2000/svg" xmlns:xlink="http://www.w3.org/1999/xlink"
     contentScriptType="application/ecmascript" contentStyleType="text/css" height="2112px" preserveAspectRatio="none"
     style="width:691px;height:2112px;background:#FFFFFF;" version="1.1" viewBox="0 0 691 2112" width="691px"
     zoomAndPan="magnify">
    <defs>
        <filter height="300%" id="f19uby5qm3nw4p" width="300%" x="-1" y="-1">
            <feGaussianBlur result="blurOut" stdDeviation="2.0"/>
            <feColorMatrix in="blurOut" result="blurOut2" type="matrix"
                           values="0 0 0 0 0 0 0 0 0 0 0 0 0 0 0 0 0 0 .4 0"/>
            <feOffset dx="4.0" dy="4.0" in="blurOut2" result="blurOut3"/>
            <feBlend in="SourceGraphic" in2="blurOut3" mode="normal"/>
        </filter>
    </defs>
    <g>
        <rect fill="#ADD8E6" filter="url(#f19uby5qm3nw4p)" height="36.4883" rx="12.5" ry="12.5"
              style="stroke:#A80036;stroke-width:1.5;" width="116" x="10" y="104.7324"/>
        <text fill="#000000" font-family="sans-serif" font-size="14" lengthAdjust="spacing" textLength="92" x="20"
              y="128.2676">PrimitiveType
        </text>
        <rect fill="#008000" filter="url(#f19uby5qm3nw4p)" height="36.4883" rx="12.5" ry="12.5"
              style="stroke:#A80036;stroke-width:1.5;" width="50" x="176" y="20"/>
        <text fill="#000000" font-family="sans-serif" font-size="14" lengthAdjust="spacing" textLength="26" x="186"
              y="43.5352">null
        </text>
        <path d="M126,122.9766 L136,122.9766 C151,122.9766 151,38.2441 166,38.2441 L176,38.2441 " fill="none"
              style="stroke:#A80036;stroke-width:1.0;"/>
        <rect fill="#90EE90" filter="url(#f19uby5qm3nw4p)" height="36.4883" rx="12.5" ry="12.5"
              style="stroke:#A80036;stroke-width:1.5;" width="80" x="176" y="76.4883"/>
        <text fill="#000000" font-family="sans-serif" font-size="14" lengthAdjust="spacing" textLength="56" x="186"
              y="100.0234">boolean
        </text>
        <path d="M126,122.9766 L136,122.9766 C151,122.9766 151,94.7324 166,94.7324 L176,94.7324 " fill="none"
              style="stroke:#A80036;stroke-width:1.0;"/>
        <rect fill="#90EE90" filter="url(#f19uby5qm3nw4p)" height="36.4883" rx="12.5" ry="12.5"
              style="stroke:#A80036;stroke-width:1.5;" width="78" x="176" y="132.9766"/>
        <text fill="#000000" font-family="sans-serif" font-size="14" lengthAdjust="spacing" textLength="54" x="186"
              y="156.5117">number
        </text>
        <path d="M126,122.9766 L136,122.9766 C151,122.9766 151,151.2207 166,151.2207 L176,151.2207 " fill="none"
              style="stroke:#A80036;stroke-width:1.0;"/>
        <rect fill="#90EE90" filter="url(#f19uby5qm3nw4p)" height="36.4883" rx="12.5" ry="12.5"
              style="stroke:#A80036;stroke-width:1.5;" width="64" x="176" y="189.4648"/>
        <text fill="#000000" font-family="sans-serif" font-size="14" lengthAdjust="spacing" textLength="40" x="186"
              y="213">string
        </text>
        <path d="M126,122.9766 L136,122.9766 C151,122.9766 151,207.709 166,207.709 L176,207.709 " fill="none"
              style="stroke:#A80036;stroke-width:1.0;"/>
        <rect fill="#ADD8E6" filter="url(#f19uby5qm3nw4p)" height="36.4883" rx="12.5" ry="12.5"
              style="stroke:#A80036;stroke-width:1.5;" width="94" x="10" y="288.3193"/>
        <text fill="#000000" font-family="sans-serif" font-size="14" lengthAdjust="spacing" textLength="70" x="20"
              y="311.8545">SelectItem
        </text>
        <rect fill="#ADD8E6" filter="url(#f19uby5qm3nw4p)" height="36.4883" rx="12.5" ry="12.5"
              style="stroke:#A80036;stroke-width:1.5;" width="105" x="154" y="274.1973"/>
        <text fill="#000000" font-family="sans-serif" font-size="14" lengthAdjust="spacing" textLength="81" x="164"
              y="297.7324">ColumnLike
        </text>
        <rect fill="#FFFF00" filter="url(#f19uby5qm3nw4p)" height="36.4883" rx="12.5" ry="12.5"
              style="stroke:#A80036;stroke-width:1.5;" width="78" x="309" y="245.9531"/>
        <text fill="#000000" font-family="sans-serif" font-size="14" lengthAdjust="spacing" textLength="54" x="319"
              y="269.4883">Column
        </text>
        <path d="M259,292.4414 L269,292.4414 C284,292.4414 284,264.1973 299,264.1973 L309,264.1973 " fill="none"
              style="stroke:#A80036;stroke-width:1.0;"/>
        <rect fill="#FFFF00" filter="url(#f19uby5qm3nw4p)" height="36.4883" rx="12.5" ry="12.5"
              style="stroke:#A80036;stroke-width:1.5;" width="100" x="309" y="302.4414"/>
        <text fill="#000000" font-family="sans-serif" font-size="14" lengthAdjust="spacing" textLength="76" x="319"
              y="325.9766">Expression
        </text>
        <path d="M259,292.4414 L269,292.4414 C284,292.4414 284,320.6855 299,320.6855 L309,320.6855 " fill="none"
              style="stroke:#A80036;stroke-width:1.0;"/>
        <path d="M104,306.5635 L114,306.5635 C129,306.5635 129,292.4414 144,292.4414 L154,292.4414 " fill="none"
              style="stroke:#A80036;stroke-width:1.0;"/>
        <rect fill="#FFFF00" filter="url(#f19uby5qm3nw4p)" height="36.4883" rx="12.5" ry="12.5"
              style="stroke:#A80036;stroke-width:1.5;" width="79" x="154" y="330.6855"/>
        <text fill="#000000" font-family="sans-serif" font-size="14" lengthAdjust="spacing" textLength="55" x="164"
              y="354.2207">Asterisk
        </text>
        <path d="M104,306.5635 L114,306.5635 C129,306.5635 129,348.9297 144,348.9297 L154,348.9297 " fill="none"
              style="stroke:#A80036;stroke-width:1.0;"/>
        <rect fill="#ADD8E6" filter="url(#f19uby5qm3nw4p)" height="36.4883" rx="12.5" ry="12.5"
              style="stroke:#A80036;stroke-width:1.5;" width="166" x="10" y="613.127"/>
        <text fill="#000000" font-family="sans-serif" font-size="14" lengthAdjust="spacing" textLength="142" x="20"
              y="636.6621">OrderByArgsElement
        </text>
        <rect fill="#FFD700" filter="url(#f19uby5qm3nw4p)" height="36.4883" rx="12.5" ry="12.5"
              style="stroke:#A80036;stroke-width:1.5;" width="168" x="226" y="443.6621"/>
        <text fill="#000000" font-family="sans-serif" font-size="14" lengthAdjust="spacing" textLength="144" x="236"
              y="467.1973">OrderByNullsPosition
        </text>
        <rect fill="#DAA520" filter="url(#f19uby5qm3nw4p)" height="36.4883" rx="12.5" ry="12.5"
              style="stroke:#A80036;stroke-width:1.5;" width="220" x="444" y="387.1738"/>
        <text fill="#000000" font-family="sans-serif" font-size="14" lengthAdjust="spacing" textLength="196" x="454"
              y="410.709">NULLS_POSITION_NOT_EXIST
        </text>
        <path d="M394,461.9063 L404,461.9063 C419,461.9063 419,405.418 434,405.418 L444,405.418 " fill="none"
              style="stroke:#A80036;stroke-width:1.0;"/>
        <rect fill="#DAA520" filter="url(#f19uby5qm3nw4p)" height="36.4883" rx="12.5" ry="12.5"
              style="stroke:#A80036;stroke-width:1.5;" width="111" x="444" y="443.6621"/>
        <text fill="#000000" font-family="sans-serif" font-size="14" lengthAdjust="spacing" textLength="87" x="454"
              y="467.1973">NULLS_FIRST
        </text>
        <path d="M394,461.9063 L404,461.9063 C419,461.9063 419,461.9063 434,461.9063 L444,461.9063 " fill="none"
              style="stroke:#A80036;stroke-width:1.0;"/>
        <rect fill="#DAA520" filter="url(#f19uby5qm3nw4p)" height="36.4883" rx="12.5" ry="12.5"
              style="stroke:#A80036;stroke-width:1.5;" width="107" x="444" y="500.1504"/>
        <text fill="#000000" font-family="sans-serif" font-size="14" lengthAdjust="spacing" textLength="83" x="454"
              y="523.6855">NULLS_LAST
        </text>
        <path d="M394,461.9063 L404,461.9063 C419,461.9063 419,518.3945 434,518.3945 L444,518.3945 " fill="none"
              style="stroke:#A80036;stroke-width:1.0;"/>
        <path d="M176,631.3711 L186,631.3711 C201,631.3711 201,461.9063 216,461.9063 L226,461.9063 " fill="none"
              style="stroke:#A80036;stroke-width:1.0;"/>
        <rect fill="#FFD700" filter="url(#f19uby5qm3nw4p)" height="36.4883" rx="12.5" ry="12.5"
              style="stroke:#A80036;stroke-width:1.5;" width="141" x="226" y="613.127"/>
        <text fill="#000000" font-family="sans-serif" font-size="14" lengthAdjust="spacing" textLength="117" x="236"
              y="636.6621">OrderByDirection
        </text>
        <rect fill="#DAA520" filter="url(#f19uby5qm3nw4p)" height="36.4883" rx="12.5" ry="12.5"
              style="stroke:#A80036;stroke-width:1.5;" width="181" x="417" y="556.6387"/>
        <text fill="#000000" font-family="sans-serif" font-size="14" lengthAdjust="spacing" textLength="157" x="427"
              y="580.1738">DIRECTION_NOT_EXIST
        </text>
        <path d="M367,631.3711 L377,631.3711 C392,631.3711 392,574.8828 407,574.8828 L417,574.8828 " fill="none"
              style="stroke:#A80036;stroke-width:1.0;"/>
        <rect fill="#DAA520" filter="url(#f19uby5qm3nw4p)" height="36.4883" rx="12.5" ry="12.5"
              style="stroke:#A80036;stroke-width:1.5;" width="52" x="417" y="613.127"/>
        <text fill="#000000" font-family="sans-serif" font-size="14" lengthAdjust="spacing" textLength="28" x="427"
              y="636.6621">ASC
        </text>
        <path d="M367,631.3711 L377,631.3711 C392,631.3711 392,631.3711 407,631.3711 L417,631.3711 " fill="none"
              style="stroke:#A80036;stroke-width:1.0;"/>
        <rect fill="#DAA520" filter="url(#f19uby5qm3nw4p)" height="36.4883" rx="12.5" ry="12.5"
              style="stroke:#A80036;stroke-width:1.5;" width="60" x="417" y="669.6152"/>
        <text fill="#000000" font-family="sans-serif" font-size="14" lengthAdjust="spacing" textLength="36" x="427"
              y="693.1504">DESC
        </text>
        <path d="M367,631.3711 L377,631.3711 C392,631.3711 392,687.8594 407,687.8594 L417,687.8594 " fill="none"
              style="stroke:#A80036;stroke-width:1.0;"/>
        <path d="M176,631.3711 L186,631.3711 C201,631.3711 201,631.3711 216,631.3711 L226,631.3711 " fill="none"
              style="stroke:#A80036;stroke-width:1.0;"/>
        <rect fill="#FFFF00" filter="url(#f19uby5qm3nw4p)" height="36.4883" rx="12.5" ry="12.5"
              style="stroke:#A80036;stroke-width:1.5;" width="136" x="226" y="669.6152"/>
        <text fill="#000000" font-family="sans-serif" font-size="14" lengthAdjust="spacing" textLength="112" x="236"
              y="693.1504">OrderByItemInfo
        </text>
        <path d="M176,631.3711 L186,631.3711 C201,631.3711 201,687.8594 216,687.8594 L226,687.8594 " fill="none"
              style="stroke:#A80036;stroke-width:1.0;"/>
        <rect fill="#ADD8E6" filter="url(#f19uby5qm3nw4p)" height="36.4883" rx="12.5" ry="12.5"
              style="stroke:#A80036;stroke-width:1.5;" width="109" x="226" y="782.5918"/>
        <text fill="#000000" font-family="sans-serif" font-size="14" lengthAdjust="spacing" textLength="85" x="236"
              y="806.127">OrderByItem
        </text>
        <rect fill="#FFFF00" filter="url(#f19uby5qm3nw4p)" height="36.4883" rx="12.5" ry="12.5"
              style="stroke:#A80036;stroke-width:1.5;" width="78" x="385" y="726.1035"/>
        <text fill="#000000" font-family="sans-serif" font-size="14" lengthAdjust="spacing" textLength="54" x="395"
              y="749.6387">Column
        </text>
        <path d="M335,800.8359 L345,800.8359 C360,800.8359 360,744.3477 375,744.3477 L385,744.3477 " fill="none"
              style="stroke:#A80036;stroke-width:1.0;"/>
        <rect fill="#FFFF00" filter="url(#f19uby5qm3nw4p)" height="36.4883" rx="12.5" ry="12.5"
              style="stroke:#A80036;stroke-width:1.5;" width="100" x="385" y="782.5918"/>
        <text fill="#000000" font-family="sans-serif" font-size="14" lengthAdjust="spacing" textLength="76" x="395"
              y="806.127">Expression
        </text>
        <path d="M335,800.8359 L345,800.8359 C360,800.8359 360,800.8359 375,800.8359 L385,800.8359 " fill="none"
              style="stroke:#A80036;stroke-width:1.0;"/>
        <rect fill="#90EE90" filter="url(#f19uby5qm3nw4p)" height="36.4883" rx="12.5" ry="12.5"
              style="stroke:#A80036;stroke-width:1.5;" width="64" x="385" y="839.0801"/>
        <text fill="#000000" font-family="sans-serif" font-size="14" lengthAdjust="spacing" textLength="40" x="395"
              y="862.6152">string
        </text>
        <path d="M335,800.8359 L345,800.8359 C360,800.8359 360,857.3242 375,857.3242 L385,857.3242 " fill="none"
              style="stroke:#A80036;stroke-width:1.0;"/>
        <path d="M176,631.3711 L186,631.3711 C201,631.3711 201,800.8359 216,800.8359 L226,800.8359 " fill="none"
              style="stroke:#A80036;stroke-width:1.0;"/>
        <rect fill="#ADD8E6" filter="url(#f19uby5qm3nw4p)" height="36.4883" rx="12.5" ry="12.5"
              style="stroke:#A80036;stroke-width:1.5;" width="117" x="10" y="1050.9111"/>
        <text fill="#000000" font-family="sans-serif" font-size="14" lengthAdjust="spacing" textLength="93" x="20"
              y="1074.4463">OperandType
        </text>
        <rect fill="#FFFF00" filter="url(#f19uby5qm3nw4p)" height="36.4883" rx="12.5" ry="12.5"
              style="stroke:#A80036;stroke-width:1.5;" width="100" x="177" y="994.4229"/>
        <text fill="#000000" font-family="sans-serif" font-size="14" lengthAdjust="spacing" textLength="76" x="187"
              y="1017.958">Expression
        </text>
        <path d="M127,1069.1553 L137,1069.1553 C152,1069.1553 152,1012.667 167,1012.667 L177,1012.667 " fill="none"
              style="stroke:#A80036;stroke-width:1.0;"/>
        <rect fill="#ADD8E6" filter="url(#f19uby5qm3nw4p)" height="36.4883" rx="12.5" ry="12.5"
              style="stroke:#A80036;stroke-width:1.5;" width="95" x="177" y="1050.9111"/>
        <text fill="#000000" font-family="sans-serif" font-size="14" lengthAdjust="spacing" textLength="71" x="187"
              y="1074.4463">ValueType
        </text>
        <rect fill="#008000" filter="url(#f19uby5qm3nw4p)" height="36.4883" rx="12.5" ry="12.5"
              style="stroke:#A80036;stroke-width:1.5;" width="50" x="322" y="895.5684"/>
        <text fill="#000000" font-family="sans-serif" font-size="14" lengthAdjust="spacing" textLength="26" x="332"
              y="919.1035">null
        </text>
        <path d="M272,1069.1553 L282,1069.1553 C297,1069.1553 297,913.8125 312,913.8125 L322,913.8125 " fill="none"
              style="stroke:#A80036;stroke-width:1.0;"/>
        <rect fill="#ADD8E6" filter="url(#f19uby5qm3nw4p)" height="36.4883" rx="12.5" ry="12.5"
              style="stroke:#A80036;stroke-width:1.5;" width="106" x="322" y="952.0566"/>
        <text fill="#000000" font-family="sans-serif" font-size="14" lengthAdjust="spacing" textLength="82" x="332"
              y="975.5918">BooleanLike
        </text>
        <rect fill="#90EE90" filter="url(#f19uby5qm3nw4p)" height="36.4883" rx="12.5" ry="12.5"
              style="stroke:#A80036;stroke-width:1.5;" width="80" x="478" y="923.8125"/>
        <text fill="#000000" font-family="sans-serif" font-size="14" lengthAdjust="spacing" textLength="56" x="488"
              y="947.3477">boolean
        </text>
        <path d="M428,970.3008 L438,970.3008 C453,970.3008 453,942.0566 468,942.0566 L478,942.0566 " fill="none"
              style="stroke:#A80036;stroke-width:1.0;"/>
        <rect fill="#FFFF00" filter="url(#f19uby5qm3nw4p)" height="36.4883" rx="12.5" ry="12.5"
              style="stroke:#A80036;stroke-width:1.5;" width="133" x="478" y="980.3008"/>
        <text fill="#000000" font-family="sans-serif" font-size="14" lengthAdjust="spacing" textLength="109" x="488"
              y="1003.8359">BooleanColumn
        </text>
        <path d="M428,970.3008 L438,970.3008 C453,970.3008 453,998.5449 468,998.5449 L478,998.5449 " fill="none"
              style="stroke:#A80036;stroke-width:1.0;"/>
        <path d="M272,1069.1553 L282,1069.1553 C297,1069.1553 297,970.3008 312,970.3008 L322,970.3008 " fill="none"
              style="stroke:#A80036;stroke-width:1.0;"/>
        <rect fill="#ADD8E6" filter="url(#f19uby5qm3nw4p)" height="36.4883" rx="12.5" ry="12.5"
              style="stroke:#A80036;stroke-width:1.5;" width="106" x="322" y="1065.0332"/>
        <text fill="#000000" font-family="sans-serif" font-size="14" lengthAdjust="spacing" textLength="82" x="332"
              y="1088.5684">NumberLike
        </text>
        <rect fill="#90EE90" filter="url(#f19uby5qm3nw4p)" height="36.4883" rx="12.5" ry="12.5"
              style="stroke:#A80036;stroke-width:1.5;" width="78" x="478" y="1036.7891"/>
        <text fill="#000000" font-family="sans-serif" font-size="14" lengthAdjust="spacing" textLength="54" x="488"
              y="1060.3242">number
        </text>
        <path d="M428,1083.2773 L438,1083.2773 C453,1083.2773 453,1055.0332 468,1055.0332 L478,1055.0332 " fill="none"
              style="stroke:#A80036;stroke-width:1.0;"/>
        <rect fill="#FFFF00" filter="url(#f19uby5qm3nw4p)" height="36.4883" rx="12.5" ry="12.5"
              style="stroke:#A80036;stroke-width:1.5;" width="133" x="478" y="1093.2773"/>
        <text fill="#000000" font-family="sans-serif" font-size="14" lengthAdjust="spacing" textLength="109" x="488"
              y="1116.8125">NumberColumn
        </text>
        <path d="M428,1083.2773 L438,1083.2773 C453,1083.2773 453,1111.5215 468,1111.5215 L478,1111.5215 " fill="none"
              style="stroke:#A80036;stroke-width:1.0;"/>
        <path d="M272,1069.1553 L282,1069.1553 C297,1069.1553 297,1083.2773 312,1083.2773 L322,1083.2773 " fill="none"
              style="stroke:#A80036;stroke-width:1.0;"/>
        <rect fill="#ADD8E6" filter="url(#f19uby5qm3nw4p)" height="36.4883" rx="12.5" ry="12.5"
              style="stroke:#A80036;stroke-width:1.5;" width="82" x="322" y="1178.0098"/>
        <text fill="#000000" font-family="sans-serif" font-size="14" lengthAdjust="spacing" textLength="58" x="332"
              y="1201.5449">TextLike
        </text>
        <rect fill="#90EE90" filter="url(#f19uby5qm3nw4p)" height="36.4883" rx="12.5" ry="12.5"
              style="stroke:#A80036;stroke-width:1.5;" width="64" x="454" y="1149.7656"/>
        <text fill="#000000" font-family="sans-serif" font-size="14" lengthAdjust="spacing" textLength="40" x="464"
              y="1173.3008">string
        </text>
        <path d="M404,1196.2539 L414,1196.2539 C429,1196.2539 429,1168.0098 444,1168.0098 L454,1168.0098 " fill="none"
              style="stroke:#A80036;stroke-width:1.0;"/>
        <rect fill="#FFFF00" filter="url(#f19uby5qm3nw4p)" height="36.4883" rx="12.5" ry="12.5"
              style="stroke:#A80036;stroke-width:1.5;" width="113" x="454" y="1206.2539"/>
        <text fill="#000000" font-family="sans-serif" font-size="14" lengthAdjust="spacing" textLength="85" x="464"
              y="1229.7891">TextColumn
        </text>
        <path d="M404,1196.2539 L414,1196.2539 C429,1196.2539 429,1224.498 444,1224.498 L454,1224.498 " fill="none"
              style="stroke:#A80036;stroke-width:1.0;"/>
        <path d="M272,1069.1553 L282,1069.1553 C297,1069.1553 297,1196.2539 312,1196.2539 L322,1196.2539 " fill="none"
              style="stroke:#A80036;stroke-width:1.0;"/>
        <path d="M127,1069.1553 L137,1069.1553 C152,1069.1553 152,1069.1553 167,1069.1553 L177,1069.1553 " fill="none"
              style="stroke:#A80036;stroke-width:1.0;"/>
        <rect fill="#ADD8E6" filter="url(#f19uby5qm3nw4p)" height="36.4883" rx="12.5" ry="12.5"
              style="stroke:#A80036;stroke-width:1.5;" width="86" x="10" y="1658.1602"/>
        <text fill="#000000" font-family="sans-serif" font-size="14" lengthAdjust="spacing" textLength="62" x="20"
              y="1681.6953">Operator
        </text>
        <rect fill="#EE82EE" filter="url(#f19uby5qm3nw4p)" height="36.4883" rx="12.5" ry="12.5"
              style="stroke:#A80036;stroke-width:1.5;" width="157" x="146" y="1403.9629"/>
        <text fill="#000000" font-family="sans-serif" font-size="14" lengthAdjust="spacing" textLength="133" x="156"
              y="1427.498">ArithmeticOperator
        </text>
        <rect fill="#FFC0CB" filter="url(#f19uby5qm3nw4p)" height="36.4883" rx="12.5" ry="12.5"
              style="stroke:#A80036;stroke-width:1.5;" width="90" x="353" y="1262.7422"/>
        <text fill="#000000" font-family="sans-serif" font-size="14" lengthAdjust="spacing" textLength="66" x="363"
              y="1286.2773">ADD = '+'
        </text>
        <path d="M303,1422.207 L313,1422.207 C328,1422.207 328,1280.9863 343,1280.9863 L353,1280.9863 " fill="none"
              style="stroke:#A80036;stroke-width:1.0;"/>
        <rect fill="#FFC0CB" filter="url(#f19uby5qm3nw4p)" height="36.4883" rx="12.5" ry="12.5"
              style="stroke:#A80036;stroke-width:1.5;" width="83" x="353" y="1319.2305"/>
        <text fill="#000000" font-family="sans-serif" font-size="14" lengthAdjust="spacing" textLength="59" x="363"
              y="1342.7656">SUB = '-'
        </text>
        <path d="M303,1422.207 L313,1422.207 C328,1422.207 328,1337.4746 343,1337.4746 L353,1337.4746 " fill="none"
              style="stroke:#A80036;stroke-width:1.0;"/>
        <rect fill="#FFC0CB" filter="url(#f19uby5qm3nw4p)" height="36.4883" rx="12.5" ry="12.5"
              style="stroke:#A80036;stroke-width:1.5;" width="85" x="353" y="1375.7188"/>
        <text fill="#000000" font-family="sans-serif" font-size="14" lengthAdjust="spacing" textLength="61" x="363"
              y="1399.2539">MUL = '*'
        </text>
        <path d="M303,1422.207 L313,1422.207 C328,1422.207 328,1393.9629 343,1393.9629 L353,1393.9629 " fill="none"
              style="stroke:#A80036;stroke-width:1.0;"/>
        <rect fill="#FFC0CB" filter="url(#f19uby5qm3nw4p)" height="36.4883" rx="12.5" ry="12.5"
              style="stroke:#A80036;stroke-width:1.5;" width="79" x="353" y="1432.207"/>
        <text fill="#000000" font-family="sans-serif" font-size="14" lengthAdjust="spacing" textLength="55" x="363"
              y="1455.7422">DIV = '/'
        </text>
        <path d="M303,1422.207 L313,1422.207 C328,1422.207 328,1450.4512 343,1450.4512 L353,1450.4512 " fill="none"
              style="stroke:#A80036;stroke-width:1.0;"/>
        <rect fill="#FFC0CB" filter="url(#f19uby5qm3nw4p)" height="36.4883" rx="12.5" ry="12.5"
              style="stroke:#A80036;stroke-width:1.5;" width="91" x="353" y="1488.6953"/>
        <text fill="#000000" font-family="sans-serif" font-size="14" lengthAdjust="spacing" textLength="67" x="363"
              y="1512.2305">MOD = '%'
        </text>
        <path d="M303,1422.207 L313,1422.207 C328,1422.207 328,1506.9395 343,1506.9395 L353,1506.9395 " fill="none"
              style="stroke:#A80036;stroke-width:1.0;"/>
        <rect fill="#FFC0CB" filter="url(#f19uby5qm3nw4p)" height="36.4883" rx="12.5" ry="12.5"
              style="stroke:#A80036;stroke-width:1.5;" width="83" x="353" y="1545.1836"/>
        <text fill="#000000" font-family="sans-serif" font-size="14" lengthAdjust="spacing" textLength="59" x="363"
              y="1568.7188">EXP = '^'
        </text>
        <path d="M303,1422.207 L313,1422.207 C328,1422.207 328,1563.4277 343,1563.4277 L353,1563.4277 " fill="none"
              style="stroke:#A80036;stroke-width:1.0;"/>
        <path d="M96,1676.4043 L106,1676.4043 C121,1676.4043 121,1422.207 136,1422.207 L146,1422.207 " fill="none"
              style="stroke:#A80036;stroke-width:1.0;"/>
        <rect fill="#EE82EE" filter="url(#f19uby5qm3nw4p)" height="36.4883" rx="12.5" ry="12.5"
              style="stroke:#A80036;stroke-width:1.5;" width="117" x="146" y="1601.6719"/>
        <text fill="#000000" font-family="sans-serif" font-size="14" lengthAdjust="spacing" textLength="93" x="156"
              y="1625.207">TextOperator
        </text>
        <rect fill="#FFC0CB" filter="url(#f19uby5qm3nw4p)" height="36.4883" rx="12.5" ry="12.5"
              style="stroke:#A80036;stroke-width:1.5;" width="119" x="313" y="1601.6719"/>
        <text fill="#000000" font-family="sans-serif" font-size="14" lengthAdjust="spacing" textLength="95" x="323"
              y="1625.207">CONCAT = '||'
        </text>
        <path d="M263,1619.916 L273,1619.916 C288,1619.916 288,1619.916 303,1619.916 L313,1619.916 " fill="none"
              style="stroke:#A80036;stroke-width:1.0;"/>
        <path d="M96,1676.4043 L106,1676.4043 C121,1676.4043 121,1619.916 136,1619.916 L146,1619.916 " fill="none"
              style="stroke:#A80036;stroke-width:1.0;"/>
        <rect fill="#ADD8E6" filter="url(#f19uby5qm3nw4p)" height="36.4883" rx="12.5" ry="12.5"
              style="stroke:#A80036;stroke-width:1.5;" width="83" x="146" y="1855.8691"/>
        <text fill="#000000" font-family="sans-serif" font-size="14" lengthAdjust="spacing" textLength="59" x="156"
              y="1879.4043">Qualifier
        </text>
        <rect fill="#EE82EE" filter="url(#f19uby5qm3nw4p)" height="36.4883" rx="12.5" ry="12.5"
              style="stroke:#A80036;stroke-width:1.5;" width="170" x="279" y="1799.3809"/>
        <text fill="#000000" font-family="sans-serif" font-size="14" lengthAdjust="spacing" textLength="146" x="289"
              y="1822.916">ComparisonOperator
        </text>
        <rect fill="#FFC0CB" filter="url(#f19uby5qm3nw4p)" height="36.4883" rx="12.5" ry="12.5"
              style="stroke:#A80036;stroke-width:1.5;" width="98" x="499" y="1658.1602"/>
        <text fill="#000000" font-family="sans-serif" font-size="14" lengthAdjust="spacing" textLength="74" x="509"
              y="1681.6953">Equal = '='
        </text>
        <path d="M449,1817.625 L459,1817.625 C474,1817.625 474,1676.4043 489,1676.4043 L499,1676.4043 " fill="none"
              style="stroke:#A80036;stroke-width:1.0;"/>
        <rect fill="#FFC0CB" filter="url(#f19uby5qm3nw4p)" height="36.4883" rx="12.5" ry="12.5"
              style="stroke:#A80036;stroke-width:1.5;" width="133" x="499" y="1714.6484"/>
        <text fill="#000000" font-family="sans-serif" font-size="14" lengthAdjust="spacing" textLength="109" x="509"
              y="1738.1836">NotEqual = '&lt;&gt;'
        </text>
        <path d="M449,1817.625 L459,1817.625 C474,1817.625 474,1732.8926 489,1732.8926 L499,1732.8926 " fill="none"
              style="stroke:#A80036;stroke-width:1.0;"/>
        <rect fill="#FFC0CB" filter="url(#f19uby5qm3nw4p)" height="36.4883" rx="12.5" ry="12.5"
              style="stroke:#A80036;stroke-width:1.5;" width="146" x="499" y="1771.1367"/>
        <text fill="#000000" font-family="sans-serif" font-size="14" lengthAdjust="spacing" textLength="122" x="509"
              y="1794.6719">GreaterThan = '&gt;'
        </text>
        <path d="M449,1817.625 L459,1817.625 C474,1817.625 474,1789.3809 489,1789.3809 L499,1789.3809 " fill="none"
              style="stroke:#A80036;stroke-width:1.0;"/>
        <rect fill="#FFC0CB" filter="url(#f19uby5qm3nw4p)" height="36.4883" rx="12.5" ry="12.5"
              style="stroke:#A80036;stroke-width:1.5;" width="177" x="499" y="1827.625"/>
        <text fill="#000000" font-family="sans-serif" font-size="14" lengthAdjust="spacing" textLength="153" x="509"
              y="1851.1602">GreaterOrEqual = '&gt;='
        </text>
        <path d="M449,1817.625 L459,1817.625 C474,1817.625 474,1845.8691 489,1845.8691 L499,1845.8691 " fill="none"
              style="stroke:#A80036;stroke-width:1.0;"/>
        <rect fill="#FFC0CB" filter="url(#f19uby5qm3nw4p)" height="36.4883" rx="12.5" ry="12.5"
              style="stroke:#A80036;stroke-width:1.5;" width="138" x="499" y="1884.1133"/>
        <text fill="#000000" font-family="sans-serif" font-size="14" lengthAdjust="spacing" textLength="114" x="509"
              y="1907.6484">LesserThan = '&lt;'
        </text>
        <path d="M449,1817.625 L459,1817.625 C474,1817.625 474,1902.3574 489,1902.3574 L499,1902.3574 " fill="none"
              style="stroke:#A80036;stroke-width:1.0;"/>
        <rect fill="#FFC0CB" filter="url(#f19uby5qm3nw4p)" height="36.4883" rx="12.5" ry="12.5"
              style="stroke:#A80036;stroke-width:1.5;" width="169" x="499" y="1940.6016"/>
        <text fill="#000000" font-family="sans-serif" font-size="14" lengthAdjust="spacing" textLength="145" x="509"
              y="1964.1367">LesserOrEqual = '&lt;='
        </text>
        <path d="M449,1817.625 L459,1817.625 C474,1817.625 474,1958.8457 489,1958.8457 L499,1958.8457 " fill="none"
              style="stroke:#A80036;stroke-width:1.0;"/>
        <path d="M229,1874.1133 L239,1874.1133 C254,1874.1133 254,1817.625 269,1817.625 L279,1817.625 " fill="none"
              style="stroke:#A80036;stroke-width:1.0;"/>
        <rect fill="#EE82EE" filter="url(#f19uby5qm3nw4p)" height="36.4883" rx="12.5" ry="12.5"
              style="stroke:#A80036;stroke-width:1.5;" width="113" x="279" y="2025.334"/>
        <text fill="#000000" font-family="sans-serif" font-size="14" lengthAdjust="spacing" textLength="89" x="289"
              y="2048.8691">NullOperator
        </text>
        <rect fill="#FFC0CB" filter="url(#f19uby5qm3nw4p)" height="36.4883" rx="12.5" ry="12.5"
              style="stroke:#A80036;stroke-width:1.5;" width="72" x="442" y="1997.0898"/>
        <text fill="#000000" font-family="sans-serif" font-size="14" lengthAdjust="spacing" textLength="48" x="452"
              y="2020.625">Is = 'IS'
        </text>
        <path d="M392,2043.5781 L402,2043.5781 C417,2043.5781 417,2015.334 432,2015.334 L442,2015.334 " fill="none"
              style="stroke:#A80036;stroke-width:1.0;"/>
        <rect fill="#FFC0CB" filter="url(#f19uby5qm3nw4p)" height="36.4883" rx="12.5" ry="12.5"
              style="stroke:#A80036;stroke-width:1.5;" width="130" x="442" y="2053.5781"/>
        <text fill="#000000" font-family="sans-serif" font-size="14" lengthAdjust="spacing" textLength="106" x="452"
              y="2077.1133">IsNot = 'IS NOT'
        </text>
        <path d="M392,2043.5781 L402,2043.5781 C417,2043.5781 417,2071.8223 432,2071.8223 L442,2071.8223 " fill="none"
              style="stroke:#A80036;stroke-width:1.0;"/>
        <path d="M229,1874.1133 L239,1874.1133 C254,1874.1133 254,2043.5781 269,2043.5781 L279,2043.5781 " fill="none"
              style="stroke:#A80036;stroke-width:1.0;"/>
        <path d="M96,1676.4043 L106,1676.4043 C121,1676.4043 121,1874.1133 136,1874.1133 L146,1874.1133 " fill="none"
              style="stroke:#A80036;stroke-width:1.0;"/>
        <!--MD5=[d224698c36d449f3080ea51e1161c936]
@startmindmap

<style>
mindmapDiagram {
  .primitive {
    BackgroundColor #lightgreen
  }
  .type {
    BackgroundColor #lightblue
  }
  .abstractClass {
    BackgroundColor #Gold
  }
  .singleToneClass {
    BackgroundColor #GoldenRod
  }
  .class {
    BackgroundColor #Yellow
  }
  .null {
    BackgroundColor #green
  }
  .enum {
    BackgroundColor #violet
  }
  .enumItem {
    BackgroundColor #pink
  }
}
</style>

* PrimitiveType <<type>>
** null <<null>>
** boolean <<primitive>>
** number <<primitive>>
** string <<primitive>>

* SelectItem <<type>>
** ColumnLike <<type>>
*** Column <<class>>
*** Expression <<class>>
** Asterisk <<class>>

* OrderByArgsElement <<type>>
** OrderByNullsPosition <<abstractClass>>
*** NULLS_POSITION_NOT_EXIST <<singleToneClass>>
*** NULLS_FIRST <<singleToneClass>>
*** NULLS_LAST <<singleToneClass>>
** OrderByDirection <<abstractClass>>
*** DIRECTION_NOT_EXIST <<singleToneClass>>
*** ASC <<singleToneClass>>
*** DESC <<singleToneClass>>
** OrderByItemInfo <<class>>
** OrderByItem <<type>>
*** Column <<class>>
*** Expression <<class>>
*** string <<primitive>>

* OperandType <<type>>
** Expression <<class>>
** ValueType <<type>>
*** null <<null>>
*** BooleanLike <<type>>
**** boolean <<primitive>>
**** BooleanColumn <<class>>
*** NumberLike <<type>>
**** number <<primitive>>
**** NumberColumn <<class>>
*** TextLike <<type>>
**** string <<primitive>>
**** TextColumn  <<class>>

* Operator <<type>>
** ArithmeticOperator <<enum>>
*** ADD = '+' <<enumItem>>
*** SUB = '-' <<enumItem>>
*** MUL = '*' <<enumItem>>
*** DIV = '/' <<enumItem>>
*** MOD = '%' <<enumItem>>
*** EXP = '^' <<enumItem>>
** TextOperator <<enum>>
*** CONCAT = '||' <<enumItem>>
** Qualifier <<type>>
*** ComparisonOperator <<enum>>
**** Equal = '=' <<enumItem>>
**** NotEqual = '<>' <<enumItem>>
**** GreaterThan = '>' <<enumItem>>
**** GreaterOrEqual = '>=' <<enumItem>>
**** LesserThan = '<' <<enumItem>>
**** LesserOrEqual = '<=' <<enumItem>>
*** NullOperator <<enum>>
**** Is = 'IS' <<enumItem>>
**** IsNot = 'IS NOT' <<enumItem>>

@endmindmap

PlantUML version 1.2022.1(Tue Feb 01 19:19:58 CET 2022)
(GPL source distribution)
Java Runtime: OpenJDK Runtime Environment
JVM: OpenJDK 64-Bit Server VM
Default Encoding: UTF-8
Language: en
Country: GB
-->
    </g>
</svg>
